<svg width="247" height="188" viewBox="0 0 247 188" fill="none" xmlns="http://www.w3.org/2000/svg">
<g clip-path="url(#clip0)">
<path opacity="0.1" d="M143.508 24.9421C127.674 24.4383 112.592 19.7609 98.1914 14.6424C83.7904 9.52392 69.5264 3.85239 54.0708 1.14089C44.1301 -0.60333 32.7604 -0.849627 24.7525 4.02704C17.0431 8.72905 14.5524 16.8232 13.2141 24.342C12.206 29.9978 11.614 35.9515 14.3738 41.2446C16.292 44.9211 19.6928 48.011 22.0465 51.5331C30.2355 63.7852 24.4467 78.8943 15.5751 90.8576C11.4158 96.4709 6.58362 101.829 3.37116 107.798C0.158695 113.768 -1.32643 120.617 1.48478 126.712C4.26908 132.757 10.9069 137.289 18.0976 140.48C32.7017 146.962 49.9042 148.816 66.6907 149.866C103.838 152.192 141.182 151.184 178.427 150.177C192.212 149.803 206.055 149.425 219.614 147.474C227.145 146.391 234.918 144.673 240.386 140.522C247.325 135.254 249.045 126.333 244.394 119.726C236.594 108.645 215.034 105.893 209.576 94.0012C206.576 87.4542 209.656 80.1639 214.019 74.0916C223.375 61.0692 239.055 49.6433 239.88 34.7581C240.448 24.5345 232.909 14.2953 221.253 9.45675C209.037 4.38752 192.094 5.02342 183.086 13.4176C173.801 22.0604 157.491 25.3854 143.508 24.9421Z" fill="#2671B8"/>
<path opacity="0.1" d="M118.293 184.075C159.367 184.075 192.665 179.953 192.665 174.868C192.665 169.783 159.367 165.661 118.293 165.661C77.2194 165.661 43.9224 169.783 43.9224 174.868C43.9224 179.953 77.2194 184.075 118.293 184.075Z" fill="#2671B8"/>
<path d="M158.879 64.8922H157.832C157.522 64.8922 157.271 65.1218 157.271 65.405V80.729C157.271 81.0122 157.522 81.2418 157.832 81.2418H158.879C159.188 81.2418 159.439 81.0122 159.439 80.729V65.405C159.439 65.1218 159.188 64.8922 158.879 64.8922Z" fill="#3A3768"/>
<path d="M85.89 52.0826H85.7945C85.4851 52.0826 85.2343 52.3122 85.2343 52.5954V56.9526C85.2343 57.2358 85.4851 57.4653 85.7945 57.4653H85.89C86.1994 57.4653 86.4503 57.2358 86.4503 56.9526V52.5954C86.4503 52.3122 86.1994 52.0826 85.89 52.0826Z" fill="#3A3768"/>
<path d="M86 61.939H85.7505C85.441 61.939 85.1902 62.1685 85.1902 62.4517V70.7944C85.1902 71.0776 85.441 71.3072 85.7505 71.3072H86C86.3095 71.3072 86.5603 71.0776 86.5603 70.7944V62.4517C86.5603 62.1685 86.3095 61.939 86 61.939Z" fill="#3A3768"/>
<path d="M85.9561 74.5852H85.7726C85.4631 74.5852 85.2123 74.8148 85.2123 75.098V83.5213C85.2123 83.8045 85.4631 84.034 85.7726 84.034H85.9561C86.2655 84.034 86.5163 83.8045 86.5163 83.5213V75.098C86.5163 74.8148 86.2655 74.5852 85.9561 74.5852Z" fill="#3A3768"/>
<path d="M148.901 34.2957H95.4613C90.1927 34.2957 85.9218 38.2042 85.9218 43.0257V160.444C85.9218 165.266 90.1927 169.174 95.4613 169.174H148.901C154.17 169.174 158.441 165.266 158.441 160.444V43.0257C158.441 38.2042 154.17 34.2957 148.901 34.2957Z" fill="#3A3768"/>
<path d="M148.211 37.7997H139.893V38.7155C139.893 39.2855 139.77 39.8499 139.531 40.3765C139.293 40.9032 138.944 41.3816 138.503 41.7846C138.062 42.1876 137.539 42.5071 136.964 42.7251C136.388 42.943 135.771 43.055 135.149 43.0547H108.693C108.07 43.055 107.453 42.943 106.878 42.7251C106.302 42.5071 105.779 42.1876 105.338 41.7846C104.898 41.3816 104.548 40.9032 104.31 40.3765C104.071 39.8499 103.949 39.2855 103.949 38.7155V37.7997H96.161C94.6336 37.7997 93.1686 38.355 92.0885 39.3434C91.0084 40.3319 90.4016 41.6725 90.4016 43.0704V160.39C90.4016 161.788 91.0084 163.129 92.0885 164.117C93.1686 165.106 94.6336 165.661 96.161 165.661H148.211C149.739 165.661 151.204 165.106 152.284 164.117C153.364 163.129 153.971 161.788 153.971 160.39V43.0794C153.972 42.3865 153.824 41.7001 153.535 41.0596C153.246 40.4191 152.822 39.837 152.287 39.3466C151.752 38.8562 151.117 38.4672 150.418 38.2017C149.718 37.9363 148.968 37.7997 148.211 37.7997Z" fill="#2671B8"/>
<path d="M124.366 38.3237H116.133C115.61 38.3237 115.186 38.7117 115.186 39.1902V39.338C115.186 39.8166 115.61 40.2045 116.133 40.2045H124.366C124.889 40.2045 125.313 39.8166 125.313 39.338V39.1902C125.313 38.7117 124.889 38.3237 124.366 38.3237Z" fill="#E6E8EC"/>
<path d="M128.012 40.3321C128.656 40.3321 129.179 39.8539 129.179 39.2641C129.179 38.6742 128.656 38.196 128.012 38.196C127.367 38.196 126.845 38.6742 126.845 39.2641C126.845 39.8539 127.367 40.3321 128.012 40.3321Z" fill="#E6E8EC"/>
<path d="M183.548 28.38C183.548 28.38 162.948 27.2426 165.375 40.453C165.375 40.453 164.885 42.7883 167.205 43.8474C167.205 43.8474 167.241 42.8689 169.319 43.2026C170.058 43.3147 170.809 43.3478 171.557 43.3011C172.566 43.2404 173.526 42.8813 174.293 42.2778C174.293 42.2778 180.084 40.088 182.335 31.4274C182.335 31.4274 184.001 29.5376 183.935 29.0517L180.458 30.4108C180.458 30.4108 181.647 32.7059 180.703 34.6135C180.703 34.6135 180.59 30.4937 179.923 30.5832C179.788 30.6012 178.117 31.3781 178.117 31.3781C178.117 31.3781 180.16 35.3748 178.618 38.2811C178.618 38.2811 179.203 33.3552 177.478 31.667L175.032 32.9746C175.032 32.9746 177.42 37.1034 175.8 40.4732C175.8 40.4732 176.216 35.3054 174.515 33.2925L172.299 34.8755C172.299 34.8755 174.542 38.9439 173.175 41.7382C173.175 41.7382 172.996 35.7241 171.819 35.2696C171.819 35.2696 169.879 36.8369 169.583 37.4773C169.583 37.4773 171.119 40.4328 170.165 41.9912C170.165 41.9912 169.58 37.9833 169.101 37.9609C169.101 37.9609 167.168 40.6165 166.967 42.439C166.967 42.439 167.051 39.732 168.634 37.7102C168.634 37.7102 166.764 38.0035 165.673 39.1118C165.673 39.1118 165.974 37.2355 169.111 37.0698C169.111 37.0698 170.708 35.0546 171.134 34.9337C171.134 34.9337 168.017 34.6942 166.126 35.4621C166.126 35.4621 167.79 33.6911 171.707 34.4971L173.896 32.8604C173.896 32.8604 169.791 32.3476 168.049 32.9141C168.049 32.9141 170.053 31.3468 174.486 32.4887L176.869 31.1856C176.869 31.1856 173.368 30.4959 171.283 30.7377C171.283 30.7377 173.485 29.6518 177.569 30.8295L179.281 30.1287C179.281 30.1287 176.717 29.6675 175.966 29.5936C175.215 29.5197 175.176 29.3316 175.176 29.3316C176.8 29.0837 178.468 29.2535 179.993 29.822C179.993 29.822 183.61 28.5882 183.548 28.38Z" fill="#2671B8"/>
<path d="M162.417 22.5048C162.417 22.5048 153.119 21.9921 154.206 27.9614C154.206 27.9614 153.988 29.016 155.033 29.4951C155.033 29.4951 155.05 29.0473 155.989 29.2018C156.323 29.2532 156.662 29.2682 157 29.2466C157.456 29.219 157.89 29.0554 158.235 28.7809C158.235 28.7809 160.853 27.7912 161.871 23.8773C161.871 23.8773 162.622 23.0243 162.593 22.8048L161.022 23.4183C161.022 23.4183 161.558 24.455 161.137 25.317C161.137 25.317 161.086 23.4564 160.785 23.4989C160.724 23.4989 159.967 23.8594 159.967 23.8594C159.967 23.8594 160.892 25.6663 160.195 26.9784C160.195 26.9784 160.459 24.7528 159.679 23.9893L158.573 24.5894C158.573 24.5894 159.652 26.4545 158.92 27.977C158.92 27.977 159.109 25.6417 158.34 24.7327L157.34 25.4491C157.34 25.4491 158.353 27.2874 157.736 28.5502C157.736 28.5502 157.653 25.832 157.122 25.626C157.122 25.626 156.246 26.3336 156.112 26.6247C156.112 26.6247 156.806 27.9681 156.376 28.6644C156.376 28.6644 156.112 26.853 155.886 26.8441C155.886 26.8441 155.013 28.0442 154.922 28.8592C154.966 28.0993 155.226 27.363 155.676 26.7232C155.172 26.8105 154.707 27.0308 154.338 27.3568C154.338 27.3568 154.475 26.5082 155.891 26.4343C155.891 26.4343 156.625 25.523 156.806 25.4671C156.806 25.4671 155.397 25.3596 154.543 25.7066C154.543 25.7066 155.294 24.9073 157.063 25.27L158.042 24.5311C158.042 24.5311 156.185 24.3072 155.4 24.5558C155.4 24.5558 156.305 23.8482 158.309 24.3632L159.385 23.7743C159.385 23.7743 157.802 23.4631 156.86 23.5751C156.86 23.5751 157.856 23.0847 159.701 23.6154L160.471 23.2997C160.471 23.2997 159.312 23.0914 158.972 23.0578C158.632 23.0243 158.614 22.9392 158.614 22.9392C159.349 22.8274 160.103 22.9049 160.792 23.1631C160.792 23.1631 162.446 22.5988 162.417 22.5048Z" fill="#2671B8"/>
<path opacity="0.1" d="M211.433 174.174C215.072 174.174 218.022 173.718 218.022 173.155C218.022 172.592 215.072 172.136 211.433 172.136C207.794 172.136 204.844 172.592 204.844 173.155C204.844 173.718 207.794 174.174 211.433 174.174Z" fill="#2671B8"/>
<path opacity="0.1" d="M22.2866 182.534C25.9255 182.534 28.8755 182.078 28.8755 181.516C28.8755 180.953 25.9255 180.497 22.2866 180.497C18.6477 180.497 15.6978 180.953 15.6978 181.516C15.6978 182.078 18.6477 182.534 22.2866 182.534Z" fill="#2671B8"/>
<path opacity="0.1" d="M47.7734 188C51.4123 188 54.3623 187.544 54.3623 186.981C54.3623 186.419 51.4123 185.962 47.7734 185.962C44.1345 185.962 41.1846 186.419 41.1846 186.981C41.1846 187.544 44.1345 188 47.7734 188Z" fill="#2671B8"/>
<path d="M197.01 185.595C202.443 185.595 206.848 184.914 206.848 184.073C206.848 183.232 202.443 182.55 197.01 182.55C191.576 182.55 187.172 183.232 187.172 184.073C187.172 184.914 191.576 185.595 197.01 185.595Z" fill="#2671B8"/>
<path d="M201.079 181.583C201.527 181.247 201.854 180.795 202.016 180.286C202.138 179.774 201.898 179.167 201.36 178.968C200.758 178.757 200.115 179.14 199.628 179.525C199.141 179.91 198.581 180.351 197.942 180.269C198.271 179.997 198.517 179.651 198.656 179.266C198.795 178.881 198.823 178.47 198.737 178.072C198.708 177.907 198.632 177.752 198.514 177.624C198.182 177.297 197.575 177.436 197.176 177.696C195.904 178.513 195.549 180.096 195.542 181.518C195.412 181.005 195.522 180.47 195.517 179.951C195.512 179.431 195.358 178.831 194.871 178.556C194.571 178.408 194.234 178.336 193.893 178.345C193.32 178.325 192.684 178.379 192.293 178.762C191.803 179.236 191.935 180.033 192.356 180.553C192.777 181.072 193.421 181.406 194.013 181.766C194.486 182.025 194.89 182.378 195.194 182.799C195.231 182.858 195.261 182.92 195.282 182.985H198.857C199.663 182.611 200.41 182.139 201.079 181.583Z" fill="#2671B8"/>
<path d="M48.1135 161.944C48.1135 161.944 49.4592 163.554 47.4945 165.974C45.5299 168.395 43.9102 170.452 44.5585 171.968C44.5585 171.968 47.5239 167.457 49.9412 167.394C52.3585 167.331 50.7682 164.658 48.1135 161.944Z" fill="#2671B8"/>
<path opacity="0.1" d="M48.1135 161.944C48.2308 162.1 48.3231 162.27 48.3875 162.45C50.7412 164.98 51.9963 167.342 49.7332 167.401C47.6266 167.457 45.0992 170.905 44.4924 171.776C44.512 171.843 44.5365 171.908 44.5634 171.975C44.5634 171.975 47.5287 167.463 49.946 167.401C52.3633 167.338 50.7681 164.658 48.1135 161.944Z" fill="black"/>
<path d="M50.6116 163.995C50.6116 164.562 50.5431 165.021 50.4575 165.021C50.3719 165.021 50.3033 164.562 50.3033 163.995C50.3033 163.429 50.389 163.695 50.4746 163.695C50.5602 163.695 50.6116 163.429 50.6116 163.995Z" fill="#FFD037"/>
<path d="M51.4703 164.671C50.9272 164.942 50.4525 165.106 50.4134 165.036C50.3742 164.967 50.7779 164.691 51.3211 164.42C51.8643 164.15 51.6514 164.347 51.6905 164.42C51.7297 164.494 52.0135 164.4 51.4703 164.671Z" fill="#FFD037"/>
<path d="M41.0158 161.944C41.0158 161.944 39.6701 163.554 41.6348 165.974C43.5994 168.395 45.2191 170.452 44.5708 171.968C44.5708 171.968 41.6079 167.457 39.1881 167.394C36.7684 167.331 38.3563 164.658 41.0158 161.944Z" fill="#2671B8"/>
<path opacity="0.1" d="M41.0157 161.944C40.898 162.1 40.8049 162.27 40.7392 162.45C38.3856 164.98 37.1329 167.342 39.3936 167.401C41.5026 167.457 44.03 170.905 44.6368 171.776C44.6167 171.843 44.5922 171.91 44.5634 171.975C44.5634 171.975 41.6005 167.463 39.1807 167.401C36.761 167.338 38.3562 164.658 41.0157 161.944Z" fill="black"/>
<path d="M38.5154 163.995C38.5154 164.562 38.5863 165.021 38.672 165.021C38.7576 165.021 38.8261 164.562 38.8261 163.995C38.8261 163.429 38.7405 163.695 38.6548 163.695C38.5692 163.695 38.5154 163.429 38.5154 163.995Z" fill="#FFD037"/>
<path d="M37.659 164.671C38.2021 164.942 38.6743 165.106 38.7159 165.036C38.7575 164.967 38.3489 164.691 37.8058 164.42C37.2626 164.15 37.4779 164.347 37.4363 164.42C37.3947 164.494 37.1158 164.4 37.659 164.671Z" fill="#FFD037"/>
<path d="M38.9435 171.765C38.9435 171.765 42.7015 171.657 43.8368 170.921C44.972 170.184 49.6183 169.299 49.8972 170.484C50.1761 171.668 55.5465 176.37 51.304 176.402C47.0615 176.433 41.444 175.797 40.3136 175.168C39.1833 174.539 38.9435 171.765 38.9435 171.765Z" fill="#A8A8A8"/>
<path opacity="0.2" d="M51.3774 175.99C47.1349 176.021 41.5174 175.385 40.387 174.756C39.5282 174.275 39.1833 172.553 39.0683 171.76H38.9435C38.9435 171.76 39.1881 174.532 40.3112 175.164C41.4342 175.795 47.0591 176.429 51.3016 176.397C52.5249 176.397 52.9482 175.99 52.9261 175.399C52.7549 175.761 52.2876 175.983 51.3774 175.99Z" fill="black"/>
<path d="M69.0521 99.5708C69.087 99.6016 69.1318 99.6213 69.1798 99.6269C69.2279 99.6326 69.2766 99.6239 69.3188 99.6021C69.2288 99.6034 69.1389 99.5928 69.0521 99.5708Z" fill="url(#paint0_linear)"/>
<path d="M98.3704 55.0135C97.8542 54.8747 97.1202 54.6486 96.232 54.3642C97.1537 53.2626 97.8273 52.0046 98.2138 50.663L98.138 50.6899C98.1625 50.6071 98.1894 50.5265 98.2138 50.4436C96.5159 51.084 94.6344 49.9958 93.438 48.6053C92.2416 47.2149 91.4268 45.4841 90.1179 44.2011C89.5713 43.693 88.9832 43.2236 88.3587 42.7972C87.9721 42.5196 87.5538 42.2308 87.0816 42.2173C86.3182 42.1972 85.7188 42.889 84.9823 43.0973C84.4967 43.1988 83.9905 43.1818 83.5143 43.048C81.6133 42.6427 79.7807 41.8971 77.8503 41.7046C76.8127 41.5851 75.759 41.6949 74.7773 42.0248C73.7986 42.3696 73.3582 43.0525 72.5753 43.5921C71.7263 44.1787 70.0357 44.1653 69.035 44.2638C67.8219 44.3913 66.6002 44.4385 65.3797 44.4049C64.6778 44.3468 63.9708 44.3709 63.2756 44.4765C61.8222 44.7721 60.6552 45.8424 59.5664 46.8723C59.2679 47.1075 59.0539 47.4197 58.9523 47.7679C58.9389 47.8661 58.9389 47.9654 58.9523 48.0635C58.9411 48.3312 58.9911 48.5981 59.0991 48.8472C59.4281 49.7729 59.8975 50.6517 60.4937 51.4579C60.939 52.049 61.4552 52.6043 61.717 53.3029C61.8372 53.6469 61.9007 54.0053 61.9054 54.3664C61.8917 54.7501 61.8483 55.1325 61.7758 55.5106C61.5835 56.5532 61.2676 57.5735 60.8338 58.5535C60.6038 59.0729 60.3445 59.5902 60.2833 60.1589C60.276 60.2722 60.276 60.3859 60.2833 60.4992C60.2099 62.2524 62.1207 63.5175 62.4853 65.2617C62.5142 65.4059 62.5322 65.5518 62.5391 65.6983C62.4975 66.7865 61.8296 67.85 60.846 68.271C60.9317 68.3023 61.0197 68.3292 61.1078 68.3583C61.0233 68.4074 60.9359 68.4522 60.846 68.4926C61.0246 68.5553 61.2081 68.6091 61.3941 68.6583C60.2691 69.5602 59.3244 70.6346 58.6024 71.8333C55.3092 77.5496 32.8636 88.7628 32.8636 88.7628C32.8636 88.7628 32.9908 88.8277 33.1963 88.9397C33.1131 88.9867 33.0251 89.0405 32.9272 89.1009C30.9846 90.301 26.424 93.8029 30.5466 98.2183C30.5466 98.2183 33.764 93.5051 36.0173 91.5012C36.1201 91.4116 36.218 91.3288 36.3134 91.2504C36.3637 91.3211 36.3976 91.4006 36.4127 91.4838C36.4279 91.567 36.424 91.6522 36.4015 91.734L51.1621 84.0384C51.1621 84.0384 56.4078 80.6306 57.8709 79.8603C58.3749 79.5961 59.6594 78.8617 61.1959 78.537L61.0246 78.6065C61.5761 78.4654 62.1452 78.3901 62.7177 78.3825C65.3308 78.4206 68.1591 80.1962 69.0937 87.2291C70.344 96.6465 69.7641 98.3437 69.3628 98.5766C69.3131 98.5732 69.2639 98.5649 69.216 98.552C69.228 98.5622 69.2411 98.5712 69.2552 98.5788C69.2004 98.5756 69.1462 98.5666 69.0937 98.552C69.1219 98.5765 69.1565 98.5939 69.1943 98.6026C69.232 98.6112 69.2715 98.6107 69.309 98.6012C69.3363 98.6085 69.3648 98.6107 69.393 98.6076C69.4212 98.6045 69.4483 98.5963 69.4729 98.5833C69.5292 98.5833 69.5953 98.5833 69.6711 98.5833C69.6711 98.6684 69.6564 98.758 69.6491 98.8453C69.6295 98.8453 69.5317 98.8968 69.6491 98.9035C69.6197 99.4342 69.6222 100.023 69.6491 100.616C68.3499 100.684 67.0532 100.755 65.9155 100.82L66.0183 100.321L66.0648 100.097C67.0605 100.023 68.0074 99.7521 68.1175 98.9998C68.3622 97.3518 65.9155 96.4719 63.8481 96.3622C61.7807 96.2524 49.332 97.0227 49.332 97.0227C49.332 97.0227 47.4653 99.2617 53.3837 99.9581C53.5599 100.043 53.7434 100.137 53.9293 100.236C56.2463 101.463 59.3927 103.72 60.8974 104.833L61.1078 104.987L60.4325 105.486C64.1025 106.257 67.6306 119.23 69.5806 125.165C71.5306 131.101 75.8025 130.882 79.3403 130.004C82.6555 129.178 83.0788 120.246 83.118 119.124C83.118 119.048 83.118 119.01 83.118 119.01L89.012 125.752L89.4597 126.265C89.6334 126.348 89.8022 126.426 89.9686 126.5C94.4338 128.472 99.3662 124.693 97.9618 120.394C96.5452 116.05 94.3432 109.631 92.8752 106.917C91.6519 104.644 90.0591 100.872 89.0951 98.5027C89.2201 98.4557 89.3418 98.4018 89.4597 98.3415C89.4597 98.3415 89.4377 98.2363 89.3985 98.0415L89.4597 98.0124C89.4597 98.0124 88.0406 91.172 87.9623 86.3155C87.9623 86.2304 87.9623 86.1454 87.9623 86.0603C87.9623 85.9752 87.9623 85.955 87.9623 85.9013C89.0291 85.6774 89.7044 85.5878 89.7044 85.5878L89.7239 85.3774L89.5992 85.402L90.1912 79.1013C90.1912 79.1013 92.3688 74.8045 90.7026 73.0133C90.1953 72.4874 89.8566 71.8435 89.7239 71.1526C89.445 69.5047 89.7239 66.7619 93.6068 64.4803C99.584 60.9627 101.903 58.1034 101.903 58.1034C101.903 58.1034 102.031 56.0032 98.3704 55.0135ZM86.4992 59.3842V56.4734C87.6076 56.4241 88.7404 56.5428 89.8536 56.4734C90.4011 56.4381 90.9436 56.3541 91.4733 56.2226L91.7424 56.395C90.1137 57.5564 88.3563 58.5582 86.4992 59.3842ZM69.5537 105.018C69.9916 105.3 70.432 105.594 70.8651 105.887C71.1342 107.322 71.3716 108.337 71.3887 108.406C70.8941 107.227 70.2797 106.093 69.5537 105.018Z" fill="url(#paint1_linear)"/>
<path d="M79.1349 103.18L78.8706 104.492L78.6675 105.495L78.2981 107.331L74.7162 109.626C74.7162 109.626 74.3932 109.373 73.8599 108.975C72.3919 107.869 69.3066 105.616 67.041 104.407C66.4583 104.067 65.8278 103.801 65.1669 103.617L79.1349 103.18Z" fill="#FFBDC6"/>
<path opacity="0.1" d="M79.1349 103.18L78.8706 104.492C78.0807 104.531 77.2884 104.494 76.5071 104.38L68.1493 104.49C67.7554 104.468 67.386 104.441 67.041 104.407C66.4583 104.067 65.8278 103.801 65.1669 103.617L79.1349 103.18Z" fill="black"/>
<path d="M76.5071 104.156C76.5071 104.156 80.6835 104.812 80.9282 103.18C81.1728 101.548 78.7776 100.666 76.7493 100.556C74.721 100.446 62.5415 101.212 62.5415 101.212C62.5415 101.212 60.3934 103.834 68.1517 104.273L76.5071 104.156Z" fill="#474463"/>
<path opacity="0.1" d="M79.1349 103.18L78.8706 104.492L78.6675 105.495L78.2981 107.331L74.7162 109.626C74.7162 109.626 74.3932 109.373 73.8599 108.975C72.3919 107.869 69.3066 105.616 67.041 104.407C66.4583 104.067 65.8278 103.801 65.1669 103.617L79.1349 103.18Z" fill="black"/>
<path opacity="0.1" d="M79.1349 103.18L78.8706 104.492C78.0807 104.531 77.2884 104.494 76.5071 104.38L68.1493 104.49C67.7554 104.468 67.386 104.441 67.041 104.407C66.4583 104.067 65.8278 103.801 65.1669 103.617L79.1349 103.18Z" fill="black"/>
<path opacity="0.1" d="M76.507 104.152C76.507 104.152 80.6859 104.806 80.9256 103.167C81.1654 101.528 78.775 100.654 76.7467 100.545C74.7185 100.435 62.539 101.201 62.539 101.201C62.539 101.201 60.3908 103.823 68.1492 104.259L76.507 104.152Z" fill="black"/>
<path d="M85.6403 50.2936H63.7916V74.003H85.6403V50.2936Z" fill="#474463"/>
<path opacity="0.1" d="M85.6403 50.4011H63.7916V74.1105H85.6403V50.4011Z" fill="black"/>
<path d="M38.185 90.881C37.8253 90.9638 37.3654 91.2817 36.854 91.743C34.652 93.738 31.4983 98.4199 31.4983 98.4199C27.4662 94.0246 31.9289 90.5518 33.8299 89.3584C34.2924 89.0696 34.6031 88.9106 34.6031 88.9106L38.185 90.881Z" fill="#FFBDC6"/>
<path d="M78.8949 57.7766C78.8949 57.7766 79.969 64.6594 83.6707 66.2984C87.3725 67.9374 78.8949 71.0004 78.8949 71.0004L67.3148 67.0641C67.3148 67.0641 73.8817 65.096 72.5678 59.3058L78.8949 57.7766Z" fill="#FFBDC6"/>
<path d="M66.4782 99.1857L66.2165 100.493L66.0036 101.501L65.6341 103.337L62.0522 105.63C62.0522 105.63 61.7293 105.379 61.1959 104.98C59.7279 103.874 56.6427 101.622 54.3746 100.413C53.7922 100.072 53.1616 99.8064 52.5005 99.6223L66.4782 99.1857Z" fill="#FFBDC6"/>
<path opacity="0.1" d="M66.4781 99.1857L66.2163 100.493C65.4264 100.533 64.6341 100.495 63.8528 100.381L55.4951 100.491C55.1011 100.469 54.7293 100.442 54.3843 100.408C53.8018 100.068 53.1713 99.8019 52.5101 99.6178L66.4781 99.1857Z" fill="black"/>
<path d="M63.8529 100.169C63.8529 100.169 68.0318 100.822 68.2691 99.1857C68.5064 97.5489 66.1209 96.6712 64.0902 96.5615C62.0595 96.4518 49.8849 97.2175 49.8849 97.2175C49.8849 97.2175 47.7343 99.8395 55.4951 100.278L63.8529 100.169Z" fill="#474463"/>
<path opacity="0.1" d="M66.0036 101.501L65.6342 103.337L62.0523 105.63C62.0523 105.63 61.7293 105.379 61.1959 104.98L65.9326 101.425L66.0036 101.501Z" fill="black"/>
<path d="M89.6603 126.513C89.4964 126.439 89.3325 126.363 89.171 126.289L88.7306 125.781L82.954 119.077C82.954 119.077 82.954 119.118 82.954 119.194C82.9149 120.313 82.4989 129.184 79.2547 130.004C75.7927 130.877 71.6162 131.097 69.7127 125.197C67.8092 119.297 64.3301 106.404 60.7579 105.639L66.0721 101.651C66.0721 101.651 69.5904 105.417 71.0241 109.022C70.9703 108.798 68.5408 98.4087 70.5348 96.5704H87.9672C87.9672 96.5704 90.6585 103.585 92.5033 107.06C93.9395 109.758 96.095 116.138 97.4823 120.454C98.8573 124.718 94.03 128.481 89.6603 126.513Z" fill="#474463"/>
<path opacity="0.1" d="M89.1636 98.5296C86.4723 99.9872 74.6574 99.3939 70.8137 99.1565L69.7665 99.0871C69.654 99.0871 69.7836 99.0289 69.7836 99.0289L69.8913 98.037L72.7563 91.3736L88.0969 83.2324C87.7861 84.0899 87.6834 85.402 87.7078 86.9044C87.7788 91.7318 89.1636 98.5296 89.1636 98.5296Z" fill="black"/>
<path d="M89.1636 98.2004C86.4723 99.6581 74.6574 99.0647 70.8137 98.8274L69.7665 98.7602L69.5928 98.7468L69.7836 98.702L70.728 98.4781L72.7563 91.0489L88.0968 82.9099C87.7861 83.7675 87.6834 85.0796 87.7078 86.582C87.7788 91.4049 89.1636 98.2004 89.1636 98.2004Z" fill="#F2F1F2"/>
<path opacity="0.1" d="M87.6981 86.5775C84.5786 87.2358 77.7132 89.1681 75.0757 93.832C73.3166 96.9376 71.8364 98.2698 70.8039 98.8274L69.7567 98.7602C69.7636 98.7411 69.7693 98.7216 69.7738 98.702L70.7182 98.4781L72.7465 91.0489L88.0871 82.9099C87.7788 83.763 87.6736 85.0751 87.6981 86.5775Z" fill="black"/>
<path opacity="0.1" d="M34.6031 88.9151L38.185 90.881C37.8253 90.9638 37.3654 91.2818 36.854 91.743C36.5555 90.9459 34.6814 89.8331 33.83 89.3584C34.2924 89.0741 34.6031 88.9151 34.6031 88.9151Z" fill="black"/>
<path opacity="0.1" d="M69.1182 98.8878C69.0789 98.9066 69.0342 98.9136 68.9904 98.908C68.9465 98.9024 68.9057 98.8844 68.8735 98.8565C68.953 98.8778 69.0354 98.8884 69.1182 98.8878Z" fill="black"/>
<path d="M77.2239 65.8618C77.2239 65.8618 73.9992 66.1887 71.7312 64.0034C71.7312 64.0034 62.1892 66.5178 58.9572 72.1983C55.7251 77.8788 33.7566 89.0248 33.7566 89.0248C33.7566 89.0248 37.5783 90.9907 37.2186 91.9737L51.6661 84.325C51.6661 84.325 56.8041 80.9396 58.2305 80.1738C59.6569 79.4081 67.545 74.7105 69.216 87.4933C70.8871 100.276 69.216 98.7468 69.216 98.7468C69.216 98.7468 71.604 99.5126 75.066 93.3932C78.528 87.2739 89.2713 85.8543 89.2713 85.8543L89.8683 79.4103C89.8683 79.4103 91.9993 75.1382 90.3576 73.3649C89.8602 72.8398 89.5294 72.2002 89.401 71.5154C89.1294 69.8787 89.401 67.1515 93.2031 64.8856C99.053 61.3882 101.321 58.549 101.321 58.549C101.321 58.549 101.441 56.4712 97.8591 55.4883C94.2771 54.5053 79.7122 49.1517 79.7122 49.1517L79.2229 51.0101L90.7148 58.4326C90.7148 58.4326 84.9847 62.6868 80.4388 62.5838C80.4388 62.5838 81.2829 65.7521 77.2239 65.8618Z" fill="#FF748E"/>
<path opacity="0.1" d="M79.4357 60.7724C79.1533 59.8966 78.9327 59.0051 78.7751 58.1035L72.4481 59.6327C72.727 60.7381 72.6772 61.8917 72.3037 62.9734C73.5973 63.2894 74.9639 63.2491 76.2325 62.8575C77.5012 62.466 78.6154 61.7407 79.4357 60.7724Z" fill="black"/>
<path d="M74.1803 62.8569C77.9381 62.8569 80.9844 60.0691 80.9844 56.6301C80.9844 53.1912 77.9381 50.4033 74.1803 50.4033C70.4224 50.4033 67.3761 53.1912 67.3761 56.6301C67.3761 60.0691 70.4224 62.8569 74.1803 62.8569Z" fill="#FFBDC6"/>
<path opacity="0.1" d="M77.799 42.4681C79.6878 42.6629 81.4812 43.4063 83.3406 43.8116C83.8051 43.9445 84.2999 43.9623 84.7744 43.8631C85.4961 43.6571 86.0833 42.9674 86.832 42.9876C87.292 42.9876 87.7006 43.2876 88.0798 43.563C88.6886 43.9883 89.2611 44.4554 89.7925 44.9602C91.0745 46.2342 91.8697 47.9493 93.0392 49.3353C94.2087 50.7213 96.0535 51.7983 97.7148 51.1624C96.5844 55.1927 92.8826 58.2624 88.8774 58.5132C87.2798 58.6117 85.6429 58.3072 84.0967 58.7371C83.7113 58.8805 83.3048 58.9711 82.8905 59.0058C81.9999 59.0058 81.283 58.2579 80.7276 57.5302C79.426 55.8196 78.3959 53.8761 76.9304 52.3155C76.4411 51.8005 75.8759 51.3102 75.1908 51.2161C74.5057 51.1221 73.877 51.4199 73.2677 51.7087C72.2622 52.1856 71.2346 52.6805 70.4541 53.4999C69.6736 54.3194 69.1818 55.5375 69.5048 56.6346C69.6785 57.2302 70.0749 57.7676 70.0822 58.39C70.0969 59.3819 69.1378 60.1096 68.9494 61.0769C68.9069 61.4832 68.8914 61.8914 68.9029 62.2994C68.8197 63.625 67.8729 64.7109 66.8844 65.5438C66.4978 65.8685 66.0721 66.2155 65.9596 66.7171C65.8837 67.0574 65.9596 67.4201 65.9106 67.765C65.7663 68.6248 64.8292 69.0614 63.9998 69.1756C63.0307 69.3047 62.0415 69.1973 61.1323 68.8643C62.292 68.3605 63.0065 66.9343 62.7373 65.6535C62.3679 63.8802 60.4203 62.6084 60.5867 60.8015C60.6786 60.2479 60.86 59.7098 61.125 59.2051C61.5496 58.2307 61.8581 57.2173 62.0449 56.1823C62.1917 55.3808 62.2627 54.5321 61.9886 53.7709C61.744 53.0745 61.2326 52.5237 60.7996 51.9371C60.212 51.1383 59.7484 50.2687 59.4221 49.3532C59.3029 49.0829 59.2575 48.7901 59.29 48.5001C59.3852 48.1526 59.5944 47.8401 59.8894 47.6045C60.9537 46.5813 62.0914 45.5155 63.5178 45.2244C64.1982 45.1191 64.8906 45.0943 65.5779 45.1505C66.7732 45.186 67.9697 45.1396 69.1574 45.0117C70.136 44.9065 71.79 44.9221 72.6194 44.34C73.3925 43.7959 73.828 43.1175 74.7798 42.7726C75.7441 42.4479 76.7805 42.3434 77.799 42.4681Z" fill="black"/>
<path opacity="0.1" d="M81.5813 106.778C81.5813 106.778 85.5204 113.881 84.3264 116.064L81.5813 106.778Z" fill="black"/>
<path opacity="0.1" d="M88.7232 125.772L82.954 119.077C82.954 119.077 82.954 119.118 82.954 119.194C82.954 119.194 82.6212 117.026 83.7198 117.754C86.1273 119.348 89.9783 121.961 90.0615 122.411C90.1447 122.861 89.281 124.659 88.7232 125.772Z" fill="black"/>
<g opacity="0.1">
<path opacity="0.1" d="M80.566 62.5838C80.566 62.5838 81.0554 64.4288 79.4797 65.3513C81.9019 64.9729 82.0096 63.2466 81.9264 62.4965C81.4767 62.5625 81.0214 62.5917 80.566 62.5838Z" fill="black"/>
<path opacity="0.1" d="M35.2001 88.586C35.2001 88.586 57.1662 77.4422 60.4007 71.7618C62.7128 67.6844 68.2862 65.2394 71.2467 64.1826C69.0888 64.8543 61.8173 67.3866 59.0868 72.1984C55.8646 77.8789 33.8862 89.0249 33.8862 89.0249L35.2001 88.586Z" fill="black"/>
<path opacity="0.1" d="M84.8428 61.7151C88.5813 60.6516 92.1534 57.996 92.1534 57.996L80.6835 50.5624L80.9453 49.5459L79.8467 49.1428L79.3696 51.0012L90.8322 58.4304C88.9952 59.7522 86.9827 60.8558 84.8428 61.7151Z" fill="black"/>
<path opacity="0.1" d="M84.9088 86.8933C86.3729 86.436 87.8752 86.0886 89.4009 85.8543L89.4204 85.6439C87.8836 85.9531 86.3752 86.3708 84.9088 86.8933Z" fill="black"/>
<path opacity="0.1" d="M71.0167 98.3393H70.9115C70.8722 98.3577 70.8276 98.3646 70.7838 98.359C70.74 98.3534 70.6992 98.3356 70.6669 98.308C70.7464 98.3292 70.8288 98.3397 70.9115 98.3393C71.303 98.1311 71.8902 96.4988 70.6669 87.0545C69.3506 76.9788 64.171 77.7647 61.3378 78.9245C64.2346 78.1946 68.2202 78.826 69.353 87.4911C70.5886 96.9355 69.9989 98.5677 69.5977 98.776C70.1068 98.7585 70.5996 98.6069 71.0167 98.3393Z" fill="black"/>
<path opacity="0.1" d="M69.5977 98.7782C69.5149 98.7786 69.4325 98.768 69.353 98.7468C69.3854 98.7744 69.4262 98.7922 69.47 98.7978C69.5137 98.8034 69.5583 98.7966 69.5977 98.7782Z" fill="black"/>
</g>
<path d="M77.7989 42.2487C79.6877 42.4458 81.4811 43.1869 83.3405 43.5922C83.8053 43.7244 84.3 43.7414 84.7743 43.6414C85.496 43.4377 86.0832 42.7458 86.8319 42.766C87.2919 42.7794 87.7005 43.066 88.0797 43.3414C88.6879 43.7674 89.2604 44.2344 89.7924 44.7386C91.0744 46.0126 91.8696 47.7277 93.0391 49.1137C94.2086 50.4996 96.0534 51.5766 97.7147 50.9407C96.5843 54.971 92.8825 58.0408 88.8773 58.2916C87.2797 58.3923 85.6429 58.0878 84.0966 58.5155C83.7115 58.66 83.3049 58.7505 82.8904 58.7842C81.9998 58.7842 81.2829 58.0363 80.7275 57.3086C79.4259 55.598 78.3958 53.6567 76.9303 52.0961C76.441 51.5789 75.8758 51.0885 75.1907 50.9945C74.5057 50.9004 73.8769 51.2005 73.2677 51.4893C72.2621 51.9662 71.2345 52.4588 70.454 53.2806C69.6735 54.1023 69.1817 55.3159 69.5047 56.4152C69.6784 57.0108 70.0748 57.5482 70.0821 58.1707C70.0968 59.1648 69.1377 59.8902 68.9493 60.8575C68.9068 61.2638 68.8912 61.672 68.9028 62.08C68.8196 63.4056 67.8728 64.4893 66.8843 65.3244C66.4977 65.6469 66.072 65.9961 65.9595 66.4955C65.8836 66.838 65.9595 67.1985 65.9105 67.5456C65.7662 68.4054 64.8291 68.842 63.9997 68.9539C63.0306 69.0852 62.0408 68.9778 61.1322 68.6427C62.2919 68.1412 63.0064 66.7126 62.7372 65.4341C62.3678 63.6608 60.4202 62.3868 60.5866 60.5821C60.6782 60.0284 60.8596 59.4903 61.1249 58.9857C61.5493 58.0105 61.8577 56.9963 62.0448 55.9607C62.1916 55.1614 62.2626 54.3128 61.9886 53.5492C61.7439 52.8551 61.2325 52.3021 60.7995 51.7155C60.2124 50.9172 59.7488 50.0484 59.422 49.1338C59.3034 48.8626 59.2581 48.5692 59.2899 48.2785C59.388 47.9352 59.5969 47.627 59.8893 47.3941C60.9536 46.3708 62.0913 45.3073 63.5177 45.014C64.1983 44.9105 64.8906 44.8865 65.5778 44.9423C66.7731 44.9767 67.9695 44.9303 69.1573 44.8035C70.1359 44.6983 71.7899 44.7117 72.6193 44.1318C73.3924 43.5899 73.8279 42.9093 74.7797 42.5644C75.7434 42.2375 76.7794 42.1292 77.7989 42.2487Z" fill="#474463"/>
<path d="M122.624 115.945C130.201 115.945 136.342 110.324 136.342 103.391C136.342 96.457 130.201 90.8362 122.624 90.8362C115.048 90.8362 108.906 96.457 108.906 103.391C108.906 110.324 115.048 115.945 122.624 115.945Z" fill="white"/>
<path d="M140.649 101.736C140.649 105.055 139.573 108.299 137.559 111.058C135.544 113.817 132.68 115.968 129.33 117.238C125.98 118.508 122.293 118.84 118.736 118.193C115.18 117.545 111.913 115.947 109.348 113.601C106.784 111.254 105.038 108.264 104.33 105.009C103.623 101.755 103.986 98.3807 105.374 95.3147C106.762 92.2486 109.112 89.628 112.127 87.7843C115.142 85.9405 118.687 84.9564 122.313 84.9564C127.176 84.9564 131.84 86.7243 135.278 89.871C138.717 93.0178 140.649 97.2857 140.649 101.736ZM120.195 110.618L133.796 98.1713C133.906 98.0709 133.993 97.9515 134.053 97.8201C134.112 97.6887 134.143 97.5478 134.143 97.4056C134.143 97.2633 134.112 97.1224 134.053 96.991C133.993 96.8596 133.906 96.7403 133.796 96.6398L132.122 95.1195C132.013 95.0188 131.882 94.9389 131.739 94.8844C131.596 94.8299 131.442 94.8019 131.287 94.8019C131.131 94.8019 130.978 94.8299 130.834 94.8844C130.691 94.9389 130.561 95.0188 130.451 95.1195L119.358 105.271L114.178 100.52C113.956 100.318 113.655 100.204 113.342 100.204C113.028 100.204 112.727 100.318 112.505 100.52L110.831 102.061C110.61 102.264 110.486 102.539 110.486 102.826C110.486 103.113 110.61 103.389 110.831 103.592L118.521 110.627C118.631 110.728 118.761 110.808 118.905 110.862C119.048 110.917 119.202 110.945 119.358 110.945C119.513 110.945 119.667 110.917 119.811 110.862C119.954 110.808 120.085 110.728 120.195 110.627V110.618Z" fill="#3ACC6C"/>
</g>
<defs>
<linearGradient id="paint0_linear" x1="69.1867" y1="99.629" x2="69.1867" y2="99.5708" gradientUnits="userSpaceOnUse">
<stop stop-color="#808080" stop-opacity="0.25"/>
<stop offset="0.54" stop-color="#808080" stop-opacity="0.12"/>
<stop offset="1" stop-color="#808080" stop-opacity="0.1"/>
</linearGradient>
<linearGradient id="paint1_linear" x1="26501.9" y1="54466.3" x2="26501.9" y2="19245.1" gradientUnits="userSpaceOnUse">
<stop stop-color="#808080" stop-opacity="0.25"/>
<stop offset="0.54" stop-color="#808080" stop-opacity="0.12"/>
<stop offset="1" stop-color="#808080" stop-opacity="0.1"/>
</linearGradient>
<clipPath id="clip0">
<rect width="247" height="188" fill="white"/>
</clipPath>
</defs>
</svg>
