<svg width="27" height="78" viewBox="0 0 27 78" fill="none" xmlns="http://www.w3.org/2000/svg">
<path opacity="0.1" d="M15 78C21.6274 78 27 77.1046 27 76C27 74.8954 21.6274 74 15 74C8.37258 74 3 74.8954 3 76C3 77.1046 8.37258 78 15 78Z" fill="#2671B8"/>
<path d="M26.6622 27.548C26.6622 27.548 26.1695 27.4792 26.1695 26.7609C26.1695 26.0426 25.8169 24.7011 25.8169 24.7011C25.8169 24.6949 25.5118 22.3648 25.0904 21.9944C24.669 21.624 24.1275 19.4491 24.1275 19.4491C24.1275 19.4491 24.035 18.2691 23.8462 18.015C23.6573 17.761 23.4023 17.1391 23.0259 16.2518C22.6495 15.3646 21.0802 14.7502 21.0802 14.7502C21.0802 14.7502 18.2429 13.1033 17.4388 12.5665C17.3658 12.5224 17.2974 12.4708 17.235 12.4126C17.095 12.2286 16.4847 12.2249 16.4847 12.2249C16.421 11.8219 16.3597 11.3589 16.3397 10.9397C16.3397 10.8947 16.3397 10.8496 16.3334 10.8046C17.23 10.2742 17.9053 9.43799 18.2354 8.44946C18.2504 8.40191 18.2629 8.35185 18.2766 8.3043C18.3304 8.28659 18.3798 8.25786 18.4218 8.21993C18.4638 8.18201 18.4974 8.13573 18.5205 8.08406C18.593 7.92263 18.5943 7.73367 18.6843 7.58351C18.7893 7.40581 18.9894 7.31071 19.147 7.17681C19.5446 6.83894 19.6471 6.26956 19.6284 5.75148C19.6159 5.33227 19.5484 4.90931 19.5746 4.4926L19.5821 4.38748C19.5896 4.32491 19.5984 4.26234 19.6096 4.20228C19.6709 3.89193 19.8047 3.59911 19.8797 3.29127C19.9548 2.98343 19.9623 2.6368 19.7872 2.37151C19.5308 1.98233 18.9969 1.90474 18.528 1.8647C17.9965 1.81965 17.5214 1.87846 17.1812 1.43672C17.0221 1.20585 16.843 0.989365 16.646 0.78976C16.576 0.724688 15.8958 0.30923 15.8958 0.2817C15.2319 -0.0260258 14.4793 -0.0837869 13.7763 0.11902C13.4236 0.221633 13.091 0.389318 12.7334 0.473161C11.9618 0.655863 11.074 0.458145 10.4188 0.899882C10.0537 1.15016 9.83482 1.5481 9.62975 1.93603C9.46302 2.25554 9.29379 2.57465 9.12207 2.89333C8.84572 3.41766 8.56436 3.95075 8.44807 4.53139C8.42362 4.65774 8.40857 4.78573 8.40305 4.91431V4.92057C8.40305 4.96687 8.40305 5.01317 8.40305 5.05947V5.11829C8.40305 5.16209 8.40305 5.20463 8.41056 5.24342C8.41806 5.28222 8.41681 5.29473 8.42056 5.32101C8.42431 5.34729 8.43056 5.4061 8.43807 5.44615C8.44557 5.48619 8.46057 5.55627 8.47558 5.61133C8.48183 5.63511 8.49058 5.65763 8.49809 5.68016C8.51059 5.7227 8.5256 5.764 8.54185 5.80529C8.55061 5.82657 8.55936 5.84909 8.56936 5.87037C8.58812 5.91417 8.61063 5.95671 8.63314 5.99551C8.64314 6.01303 8.65064 6.02929 8.66065 6.04556C8.69554 6.10376 8.73395 6.15976 8.77569 6.21324C9.04328 6.54736 9.43718 6.7601 9.72854 7.07294C9.72854 7.08546 9.72854 7.09797 9.72854 7.10923C9.72854 7.14427 9.72854 7.17806 9.72854 7.2131C9.74399 7.91081 9.92956 8.59417 10.2691 9.20375C10.6086 9.81332 11.0919 10.3306 11.6767 10.7107C11.6767 10.7583 11.683 10.8071 11.6855 10.8546C11.7099 11.2261 11.7053 11.5989 11.6717 11.9696C11.6208 11.9096 11.5571 11.8618 11.4852 11.8297C11.4134 11.7977 11.3352 11.7822 11.2566 11.7844C11.2029 11.7818 11.149 11.7864 11.0965 11.7982L11.0853 11.7894V11.8007C10.8102 11.8682 10.4713 12.1548 10.1474 12.9695C10.1474 12.9695 9.16208 14.0807 8.41181 14.0344C7.66154 13.9881 5.7621 15.1907 5.7621 15.1907C5.7621 15.1907 3.90892 16.3945 3.51128 17.6208C3.28901 18.3162 3.02254 18.9967 2.71349 19.6581L0.422654 24.382L0 28.1299C0 28.1299 0.233835 29.7968 0.187568 30.0508C0.141301 30.3048 1.14917 32.5961 1.14917 32.5961C1.14917 32.5961 4.47913 38.4513 5.83962 38.7517L5.93716 38.6828C5.99537 38.7133 6.05711 38.7364 6.12098 38.7517L6.40108 38.5539C6.4179 38.7743 6.41077 38.9958 6.37982 39.2147C6.19225 39.7928 6.44984 43.5657 6.77746 44.3053C7.10508 45.0449 6.98879 54.7418 6.98879 54.7418L6.94252 55.5977C6.94252 55.5977 6.94252 55.6253 6.95378 55.6728L6.94252 55.8755L6.97629 55.8931C7.01134 56.1646 6.99993 56.4401 6.94252 56.7077C6.82498 57.0831 6.77746 58.1443 6.77746 58.1443C6.77746 58.1443 5.84087 64.1359 6.28478 65.3398C6.7287 66.5436 7.10633 67.8625 7.10633 67.8625C7.10633 67.8625 7.57525 69.3642 7.12884 69.6207C6.68243 69.8773 5.41322 70.3077 5.67456 70.9334C5.91215 71.5116 6.81373 73.0608 6.94752 73.2873L6.93627 73.4062L6.75245 75.3996C6.78222 75.6628 6.85355 75.9196 6.96378 76.1604C7.1651 76.5947 7.5565 77.0452 8.30052 76.9964C8.42556 76.9876 8.57061 76.9726 8.71067 76.9538C10.0724 76.7711 11.7493 76.1629 11.7493 76.1629C11.6622 76.1076 11.5824 76.0416 11.5117 75.9665C11.4447 75.9016 11.3917 75.8238 11.3558 75.7377C11.3199 75.6516 11.3019 75.5592 11.3029 75.4659C11.3229 75.103 10.6439 73.3736 10.4751 72.9481C10.4488 72.8868 10.435 72.8518 10.435 72.8518C10.435 72.8518 11.9831 71.2325 11.7255 69.7972C11.7255 69.7972 10.0124 68.7961 10.5763 68.2467C11.1403 67.6974 12.1482 66.1194 12.1482 66.1194C12.1482 66.1194 12.1944 60.2191 12.1482 59.3381C12.0999 58.7267 12.1289 58.1116 12.2344 57.5074C12.2532 57.416 12.2757 57.3272 12.2995 57.2396C13.0794 57.3561 13.8668 57.4159 14.6553 57.4185C14.9429 57.4185 15.2355 57.4185 15.5306 57.401C15.5306 57.4844 15.5344 57.5745 15.5419 57.6713C15.6069 59.1329 15.7282 61.6957 15.827 62.648C15.9671 64.0133 16.7411 67.6923 16.7411 67.6923C16.7411 67.6923 15.2643 68.6409 16.9987 70.9785C16.9987 70.9785 16.9987 71.8257 16.8836 71.9483C16.7608 72.3492 16.6619 72.757 16.5873 73.1696C16.5147 73.6101 16.4847 74.0556 16.6023 74.2871C16.8836 74.8402 18.5718 74.7952 18.5718 74.7952L18.613 74.7877C18.9317 74.7547 19.2538 74.7854 19.5605 74.878C19.8673 74.9706 20.1526 75.1232 20.3999 75.327C21.0414 75.8426 23.476 75.6161 24.794 75.4522C25.3104 75.3871 25.6556 75.327 25.6556 75.327C25.6723 75.2685 25.6782 75.2075 25.6731 75.1468C25.6593 74.8227 25.4055 74.1119 23.6849 73.4775C23.6849 73.4775 22.0668 72.3888 22.0893 71.4402H22.0555H21.8679C22.0042 71.4327 22.0918 71.4402 22.0918 71.4402C22.0918 71.4402 21.4578 69.1252 21.7166 68.9375C21.9755 68.7498 21.2002 66.1844 21.2002 66.1844C21.2002 66.1844 20.7563 61.8797 20.7325 61.5781C20.7335 61.3193 20.7727 61.0621 20.8488 60.8148L20.7325 58.4547C20.7325 58.4547 20.71 57.67 20.7325 57.4147C20.7287 57.1932 20.7108 56.9721 20.6788 56.7528C20.6675 56.6652 20.6563 56.5738 20.6437 56.4837C21.2502 56.3298 21.6441 56.1871 21.6441 56.1871L21.5741 47.9718C22.0893 46.9707 22.1843 44.7746 22.1818 43.2166C22.1818 42.2155 22.1368 41.4747 22.1368 41.4747L22.8408 40.3246C22.8408 40.3246 23.0034 38.9481 22.7458 38.6465C22.632 38.5101 22.6832 38.3687 22.777 38.2524C22.8257 38.2137 22.8771 38.1786 22.9308 38.1472C22.9308 38.1472 22.9233 38.136 22.9146 38.1197C22.9637 38.0786 23.016 38.0414 23.0709 38.0083C23.0709 38.0083 22.8208 37.6204 23.0446 37.4565C23.2547 37.5991 23.4423 37.7067 23.5848 37.7943C23.5748 37.8857 23.5648 37.9383 23.5648 37.9383L23.6248 37.8131C23.7624 37.8907 23.8462 37.9383 23.8462 37.9383C23.8462 37.9383 24.9491 35.7396 24.9253 35.4155C24.9016 35.0914 25.6756 33.7261 25.6756 33.7261C25.6756 33.7261 25.7694 33.0091 26.192 32.7087C26.6147 32.4084 26.5196 30.2323 26.5196 30.2323C26.5196 30.2323 26.6372 29.0985 26.9185 28.6355C27.1999 28.1725 26.6622 27.548 26.6622 27.548ZM5.55952 26.5832L5.58078 27.1076C5.45573 26.9061 5.3657 26.7609 5.3657 26.7609L5.55952 26.5832Z" fill="url(#paint0_linear)"/>
<path d="M24 36.9643L23.7216 38C23.7216 38 21.4921 37.0059 21.09 35.7428C20.688 34.4796 21.7628 34 21.7628 34L23.8402 34.7689L24 36.9643Z" fill="white"/>
<path opacity="0.1" d="M24 36.9643L23.7216 38C23.7216 38 21.4921 37.0059 21.09 35.7428C20.688 34.4796 21.7628 34 21.7628 34L23.8402 34.7689L24 36.9643Z" fill="black"/>
<path d="M12 76.2283C12 76.2283 9.95605 76.9107 8.55084 76.9966C7.8048 77.0419 7.41262 76.6264 7.21078 76.2259C7.10052 76.0033 7.02939 75.7664 7 75.5237L7.18268 73.6841L7.27977 72.7045L10.2652 72L10.688 73.1746L10.7276 73.264C10.8975 73.6563 11.5784 75.2521 11.558 75.5853C11.5572 75.6706 11.5753 75.7551 11.6113 75.8339C11.6473 75.9127 11.7004 75.984 11.7675 76.0437C11.8361 76.114 11.9142 76.176 12 76.2283Z" fill="white"/>
<path d="M24.9983 75.5246C25.0033 75.5823 24.9973 75.6403 24.9807 75.696C24.9807 75.696 20.6936 76.38 19.8167 75.696C19.5694 75.4961 19.2812 75.3479 18.9705 75.2608C18.6598 75.1738 18.3336 75.1498 18.0126 75.1904C18.0126 75.1904 16.3539 75.2335 16.077 74.7112C15.9618 74.4919 15.9918 74.0666 16.0632 73.6473C16.1361 73.2544 16.2331 72.866 16.3539 72.484L16.4203 72.4337L16.8149 72.1306L21.4353 72H21.4704C21.4478 72.9033 23.0389 73.9396 23.0389 73.9396C24.7289 74.5387 24.9782 75.2155 24.9983 75.5246Z" fill="white"/>
<path opacity="0.1" d="M24.9987 75.3939C25.003 75.4675 24.9967 75.5414 24.9799 75.6123C24.9799 75.6123 20.6935 76.4846 19.8164 75.6123C19.5693 75.3577 19.2813 75.1688 18.9708 75.0578C18.6603 74.9468 18.3342 74.9161 18.0134 74.9676C18.0134 74.9676 16.3533 75.0226 16.0776 74.3566C15.9623 74.0755 15.9912 73.5347 16.0626 73C16.7016 73.0779 17.7102 73.2719 18.1062 73.7348C18.7051 74.4391 19.72 75.1418 20.3427 75.1968C20.8301 75.235 23.7457 75.348 24.9987 75.3939Z" fill="black"/>
<path opacity="0.1" d="M12 76.188C12 76.188 9.86553 76.9061 8.39808 76.9964C7.61899 77.0441 7.20945 76.6069 7 76.1844C7.54296 76.3517 8.29669 76.5275 8.6929 76.3663C9.16249 76.1758 10.8274 76.0525 11.7612 76C11.8323 76.0712 11.9125 76.1344 12 76.188Z" fill="black"/>
<path d="M14.8459 16.8664C12.9376 16.2793 10.4829 14.3395 11.0958 13.4332C11.232 13.2045 11.3129 12.9576 11.3344 12.7053C11.3738 12.3629 11.3796 12.0185 11.3517 11.6754C11.3087 11.1134 11.2233 10.5539 11.0958 10C11.0958 10 17.0535 10.1064 16.7065 10.8011C16.6053 11.0048 16.5894 11.3584 16.6169 11.7544C16.6444 12.1503 16.7166 12.5978 16.7918 12.9766C16.8959 13.4961 17 13.8921 17 13.8921C17 13.8921 16.6357 14.2961 16.4217 14.3178C16.2078 14.3395 17.5841 17.7029 14.8459 16.8664Z" fill="#CF6F80"/>
<path opacity="0.1" d="M10 73.4617L9.96649 73.5074C8.63459 71.5074 7.02378 74 7.02378 74L7 73.9476L7.08216 72.8148L9.60865 72L9.96649 73.3584L10 73.4617Z" fill="black"/>
<path d="M11.9884 57.3612C11.913 57.5593 11.8558 57.7647 11.8175 57.9745C11.7237 58.5491 11.6977 59.1338 11.7399 59.7152C11.7815 60.5521 11.7399 66.1603 11.7399 66.1603C11.7399 66.1603 10.8505 67.656 10.3547 68.1832C9.85879 68.7104 11.3666 69.6573 11.3666 69.6573C11.5915 71.0202 10.2287 72.56 10.2287 72.56C8.84345 70.7787 7.16808 73 7.16808 73C7.16808 73 6.25731 71.3262 6.03018 70.7285C5.80305 70.1307 6.91959 69.7171 7.31201 69.4744C7.70442 69.2317 7.29289 67.8006 7.29289 67.8006C7.29289 67.8006 6.96119 66.5465 6.56765 65.4024C6.17411 64.2582 7.00167 58.5627 7.00167 58.5627C7.00167 58.5627 7.0444 57.5513 7.14672 57.1986C7.19835 56.9441 7.20862 56.6821 7.17708 56.4239C7.17033 56.3366 7.16246 56.2637 7.15684 56.2147C7.15122 56.1657 7.14672 56.1429 7.14672 56.1429L7.16246 56.1142L7.72467 55C7.72467 55 12.2583 56.6594 11.9884 57.3612Z" fill="#2671B8"/>
<path d="M22 71.2623C22 71.2623 20.78 71.2393 20.1294 71.7473C19.4787 72.2553 16.3338 71.8589 16.4694 71.7473C16.605 71.6358 16.5941 70.8101 16.5941 70.8101C14.7492 68.5574 16.323 67.6432 16.323 67.6432C16.323 67.6432 15.4988 64.0968 15.3497 62.7812C15.2454 61.8622 15.1166 59.3924 15.0474 57.9824C15.0176 57.3761 15 56.959 15 56.959L16.5074 56.6875L16.7012 56.6523L20.3368 56C20.3368 56 20.4371 56.6062 20.5048 57.1021C20.5386 57.3138 20.5576 57.5272 20.5618 57.7411C20.5374 57.9836 20.5618 58.7426 20.5618 58.7426L20.6851 61.0183C20.6045 61.2571 20.563 61.5049 20.5618 61.7543C20.5862 62.0441 21.0593 66.1931 21.0593 66.1931C21.0593 66.1931 21.8821 68.6689 21.6015 68.8471C21.3209 69.0254 22 71.2623 22 71.2623Z" fill="#2671B8"/>
<path opacity="0.1" d="M15.987 10.6917C15.8971 10.8676 15.883 11.173 15.9074 11.5149C15.1981 11.8434 14.3827 12.0113 13.5548 11.9994C12.727 11.9875 11.9203 11.7963 11.2274 11.4477C11.1893 10.9621 11.1133 10.4786 11 10C11 10 16.2954 10.0899 15.987 10.6917Z" fill="black"/>
<path d="M17.9982 7.53884C17.9992 8.00877 17.9329 8.47585 17.8019 8.92247C17.509 9.92317 16.9085 10.7762 16.1064 11.3307C15.3044 11.8852 14.3524 12.1055 13.4189 11.9527C12.4853 11.8 11.6302 11.2839 11.0046 10.4958C10.3791 9.70762 10.0235 8.69815 10.0006 7.64578C10.0006 7.60926 10.0006 7.57535 10.0006 7.53884C9.99151 6.94648 10.0882 6.35803 10.2852 5.80781C10.4821 5.2576 10.7752 4.75663 11.1475 4.33414C11.5198 3.91165 11.9637 3.57609 12.4535 3.34703C12.9432 3.11797 13.469 3 14 3C14.531 3 15.0568 3.11797 15.5465 3.34703C16.0363 3.57609 16.4802 3.91165 16.8525 4.33414C17.2248 4.75663 17.5179 5.2576 17.7148 5.80781C17.9118 6.35803 18.0085 6.94648 17.9994 7.53884H17.9982Z" fill="#CF6F80"/>
<path opacity="0.1" d="M14.8459 16.8755C12.9376 16.3287 10.4829 14.5221 11.0958 13.6779C11.232 13.4649 11.3129 13.235 11.3344 13L13.9467 14.5828L15.563 15.5602L16.7918 13.2537C16.8959 13.7376 17 14.1064 17 14.1064C17 14.1064 16.6357 14.4826 16.4217 14.5029C16.2078 14.5231 17.5841 17.6546 14.8459 16.8755Z" fill="black"/>
<path d="M21 25.0064L19.0638 56.838L16.5387 57L10 38.5427L11.0727 16.6297L11.2985 12L14.206 14.3368L15.6418 15.4883L16.7645 12.6919L18.8521 14.4724L21 25.0064Z" fill="#2671B8"/>
<path opacity="0.1" d="M11.9881 57.3794C11.9104 57.5799 11.8514 57.7877 11.8119 58C10.1527 57.7325 8.54126 57.207 7.03128 56.4407L7 56.4238L7.01043 56.229L7.01622 56.1274L7.59556 55C7.59556 55 12.2661 56.6694 11.9881 57.3794Z" fill="black"/>
<path opacity="0.1" d="M17 57.882C16.3583 57.9403 15.7111 57.9797 15.0614 58C15.0228 57.5318 15 57.2097 15 57.2097L16.9492 57L17 57.882Z" fill="black"/>
<path opacity="0.1" d="M20 56.7496C19.2398 56.9022 18.0659 57.0738 17.015 56.9665L17 56.4437L19.8674 56C19.8674 56 19.9465 56.4082 20 56.7496Z" fill="black"/>
<path opacity="0.1" d="M17 57.8121C11.9406 58.6995 7.30695 56.1552 7.30695 56.1552L7.35138 55.2931C7.35138 55.2931 7.46614 45.52 7.14777 44.7708C6.8294 44.0216 6.58137 40.2221 6.76153 39.639C6.94169 39.0558 6.10381 30.3109 6.10381 30.3109L5.96807 26.7612L1 24.6935L3.22119 19.9369C3.52121 19.27 3.77923 18.584 3.99368 17.8831C4.37992 16.6484 6.17292 15.4351 6.17292 15.4351C6.17292 15.4351 8.01157 14.2232 8.73839 14.2688C9.46522 14.3144 10.4179 13.1963 10.4179 13.1963C11.1212 11.3542 11.758 12.1884 11.758 12.1884C11.758 12.2759 11.758 12.1884 11.7234 12.461C11.4766 14.483 15.7142 20.8725 15.7746 20.9853L16.1782 31.0842L16.5866 43.8644L17 57.8121Z" fill="black"/>
<path d="M17 57.8121C11.9418 58.6994 7.30797 56.1555 7.30797 56.1555L7.35361 55.2935C7.35361 55.2935 7.46835 45.5221 7.14882 44.773C6.82928 44.0239 6.58254 40.2251 6.7639 39.642C6.94525 39.0589 6.10633 30.3154 6.10633 30.3154L5.96939 26.7663L1 24.6914L3.22068 19.9356C3.51997 19.2685 3.77792 18.5827 3.99298 17.8822C4.3779 16.6476 6.17172 15.4346 6.17172 15.4346C6.17172 15.4346 8.00995 14.2228 8.73537 14.2684C9.46079 14.314 10.4144 13.1961 10.4144 13.1961C11.1189 11.3543 11.8949 12.1884 11.8949 12.1884C11.8949 12.2758 11.8209 12.3151 11.8604 12.4609C12.4032 14.4218 15.7145 20.871 15.7749 20.9838L16.1833 31.081L16.5916 43.8591L17 57.8121Z" fill="white"/>
<path opacity="0.1" d="M15 22C14.533 21.7662 12.059 18.3774 12.059 18.3774V17.6061C11.969 17.352 11.4342 17.507 11 17.6849L11.1864 13L11.3982 13.2109C11.8621 15.1754 14.946 21.8869 15 22Z" fill="black"/>
<path d="M16 21C15.415 20.7662 12.3235 17.3774 12.3235 17.3774V16.6061C12.211 16.352 11.5426 16.507 11 16.6849L11.2342 12L11.4989 12.2109C12.0799 14.1753 15.9352 20.8882 16 21Z" fill="white"/>
<path opacity="0.1" d="M7.2895 37.4171C7.36027 37.4171 10.9578 37 10.9578 37C10.9578 37 13.1361 41.7228 12.9933 42.872C12.8505 44.0211 12.5918 45.0383 11.7156 44.8581C10.8394 44.678 7 45 7 45L7.2895 37.4171Z" fill="black"/>
<path d="M7.2895 37.365C7.36027 37.365 10.9579 37 10.9579 37C10.9579 37 13.1349 41.1337 12.9934 42.138C12.8519 43.1422 12.5907 44.0335 11.7157 43.8759C10.8408 43.7182 7 44 7 44L7.2895 37.365Z" fill="white"/>
<path d="M9.84145 36C9.84145 36 12.9318 37.416 12.998 37.8483C13.0643 38.2806 11.4252 37.6593 11.0711 37.5844C10.838 37.5365 10.6008 37.5049 10.3617 37.4899L8 37.5443L9.84145 36Z" fill="#CF6F80"/>
<path opacity="0.1" d="M14.5 22C14.7761 22 15 21.7761 15 21.5C15 21.2239 14.7761 21 14.5 21C14.2239 21 14 21.2239 14 21.5C14 21.7761 14.2239 22 14.5 22Z" fill="black"/>
<path d="M14.5 22C14.7761 22 15 21.7761 15 21.5C15 21.2239 14.7761 21 14.5 21C14.2239 21 14 21.2239 14 21.5C14 21.7761 14.2239 22 14.5 22Z" fill="#3F3D56"/>
<path d="M22.2888 37.3435C22.2888 37.3435 22.5184 37.686 22.2888 37.8461C22.0591 38.0062 22.3112 38.3935 22.3112 38.3935C22.3112 38.3935 21.7383 38.7273 21.9904 39.0277C22.2426 39.328 22.0828 40.6846 22.0828 40.6846L21.3938 41.819C21.3938 41.819 21.435 42.55 21.4374 43.5379C21.4374 45.0794 21.3463 47.2464 20.842 48.2343L20.9119 56.34C20.9119 56.34 18.499 57.2163 16.4793 56.9494L16.1798 43.9425C16.1798 43.9425 16.6166 36.5665 16.7777 35.1517C16.8719 34.4171 16.9103 33.6766 16.8925 32.9363C16.8925 32.9363 16.8239 30.7221 16.5929 29.6945C16.5929 29.6945 16.3433 25.2426 16.3183 24.0101C16.3071 23.4206 16.3383 21.7004 16.3732 20.0646C16.4119 18.2762 16.4556 16.5895 16.4556 16.5895L16 13.0051C16 13.0051 16.4556 12.9592 16.5929 13.1417C16.6544 13.1988 16.7213 13.2499 16.7926 13.2943C17.5791 13.823 20.3577 15.4489 20.3577 15.4489C20.3577 15.4489 21.8956 16.0571 22.2638 16.9283C22.632 17.7996 22.8879 18.4177 23.0664 18.6659C23.2449 18.9141 23.3423 20.0808 23.3423 20.0808C23.3423 20.0808 23.8716 22.2279 24.2847 22.5916C24.6979 22.9552 25 25.2686 25 25.2686L21.3488 28.1232C21.3488 28.1232 21.028 32.8717 20.9594 33.0554C20.8907 33.2391 22.2888 37.3435 22.2888 37.3435Z" fill="white"/>
<path d="M23.0389 37.3591C23.0389 37.3591 23.2887 37.7013 23.0389 37.8612C22.7891 38.0212 23.0621 38.408 23.0621 38.408C23.0621 38.408 22.4396 38.7453 22.7126 39.0453C22.9857 39.3454 22.8137 40.7006 22.8137 40.7006L22.0601 41.8339C22.0601 41.8339 22.1051 42.5642 22.1092 43.5511C22.1092 45.0911 22.0096 47.256 21.458 48.2429L21.5331 56.3407C21.5331 56.3407 18.8901 57.2161 16.684 56.9495L16.3577 43.9553C16.3577 43.9553 16.8355 36.5866 17.0116 35.1731C17.1148 34.4393 17.1563 33.6994 17.1358 32.9599C17.1358 32.9599 17.0608 30.7479 16.8096 29.7213C16.8096 29.7213 16.5365 25.2738 16.5078 24.0425C16.4956 23.4536 16.5311 21.7351 16.5679 20.1009C16.6102 18.3142 16.658 16.6292 16.658 16.6292L16 13C16 13 16.658 13 16.8096 13.1847C16.8762 13.2425 16.9494 13.2936 17.028 13.3373C17.8881 13.8655 20.9283 15.4897 20.9283 15.4897C20.9283 15.4897 22.6089 16.0973 23.0116 16.9677C23.4143 17.8381 23.6942 18.4556 23.8908 18.7035C24.0874 18.9515 24.1911 20.117 24.1911 20.117C24.1911 20.117 24.77 22.2621 25.2218 22.6253C25.6737 22.9886 26 25.2948 26 25.2948L22.0068 28.1466C22.0068 28.1466 21.656 32.8905 21.5795 33.074C21.5031 33.2575 23.0389 37.3591 23.0389 37.3591Z" fill="white"/>
<path opacity="0.1" d="M18.5938 17.3476L18.8667 18.2888L17.43 20C17.462 18.2399 17.4982 16.5776 17.4982 16.5776L17 13C17 13 17.4982 13 17.6129 13.1821C17.6632 13.2389 17.7187 13.2889 17.7783 13.3312L19 17.4992L18.5938 17.3476Z" fill="black"/>
<path d="M18.3895 17.3477L18.8001 18.2888L16.6462 20C16.6942 18.2387 16.7485 16.5776 16.7485 16.5776L16 13C16 13 16.7485 13 16.9189 13.1821C16.9949 13.2387 17.078 13.2891 17.1668 13.3325L19 17.4992L18.3895 17.3477Z" fill="white"/>
<path opacity="0.1" d="M17.9982 7.43423C17.9992 7.89332 17.9329 8.34964 17.8019 8.78597C17.7798 8.78972 17.7572 8.78861 17.7356 8.7827C17.7139 8.77679 17.6935 8.76621 17.6756 8.75156C17.6452 7.60494 17.1274 6.5284 16.4904 5.61238C16.3115 5.3358 16.0947 5.09087 15.8475 4.88618C15.5975 4.68159 15.2867 4.58576 14.9755 4.61736C14.6248 4.6696 14.315 4.9295 13.9608 4.96262C13.4933 5.00467 13.0748 4.65176 12.6108 4.63393C12.4221 4.63588 12.236 4.68167 12.0649 4.76822C11.8937 4.85478 11.7415 4.98012 11.6184 5.13589C11.3746 5.45023 11.1934 5.81641 11.0865 6.21116C10.9027 6.80975 10.8026 7.43508 10.7896 8.06614C10.7838 8.42287 10.7522 8.87005 10.4483 9C10.4712 8.73765 10.4438 8.47298 10.3679 8.22275C10.2921 7.97253 10.1694 7.74219 10.0076 7.54634L10.0006 7.5387C10.0006 7.50302 10.0006 7.4699 10.0006 7.43423C9.99151 6.85552 10.0882 6.28063 10.2852 5.7431C10.4821 5.20556 10.7752 4.71614 11.1475 4.30339C11.5198 3.89063 11.9637 3.56281 12.4535 3.33903C12.9432 3.11525 13.469 3 14 3C14.531 3 15.0568 3.11525 15.5465 3.33903C16.0363 3.56281 16.4802 3.89063 16.8525 4.30339C17.2248 4.71614 17.5179 5.20556 17.7148 5.7431C17.9118 6.28063 18.0085 6.85552 17.9994 7.43423H17.9982Z" fill="black"/>
<path d="M15.804 1.26468C15.1147 0.975967 14.3307 0.921363 13.5994 1.11113C13.2319 1.20799 12.8857 1.36508 12.5129 1.44422C11.717 1.61548 10.7885 1.43004 10.1054 1.84462C9.72597 2.08085 9.49781 2.4541 9.28557 2.81671L8.75497 3.71674C8.4658 4.20928 8.17397 4.71008 8.05325 5.25223C7.93254 5.79437 8.0055 6.40148 8.39151 6.83732C8.67273 7.15505 9.08793 7.35467 9.39302 7.6535C9.5758 7.83526 9.71444 8.04868 9.80027 8.28038C9.88609 8.51209 9.91725 8.75708 9.89179 9C10.238 8.88189 10.2712 8.46612 10.2791 8.1354C10.2939 7.55035 10.4075 6.97061 10.6161 6.41565C10.7371 6.04957 10.9427 5.71003 11.2196 5.41877C11.3595 5.27448 11.5323 5.15835 11.7264 5.07811C11.9206 4.99787 12.1318 4.95536 12.3458 4.9534C12.8764 4.96993 13.3526 5.29593 13.8779 5.25695C14.2759 5.22742 14.6287 4.98529 15.0293 4.93804C15.3825 4.90828 15.7355 4.99717 16.0189 5.18726C16.2993 5.37674 16.545 5.60387 16.7471 5.86052C17.4714 6.70976 18.059 7.70546 18.0935 8.77086C18.2434 8.86889 18.4597 8.74133 18.5339 8.59014C18.6082 8.43896 18.6109 8.26178 18.705 8.11768C18.8138 7.95114 19.0221 7.86256 19.1852 7.73736C19.5991 7.41963 19.7026 6.88457 19.6867 6.39912C19.6707 5.91367 19.5646 5.42113 19.6681 4.94395C19.7304 4.65102 19.871 4.377 19.948 4.08762C20.0249 3.79824 20.0342 3.47342 19.8525 3.2242C19.5872 2.85805 19.0287 2.786 18.5419 2.75174C17.9887 2.70922 17.494 2.76356 17.1411 2.34897C16.9755 2.13263 16.7891 1.9295 16.584 1.74186C16.5137 1.68045 15.804 1.29067 15.804 1.26468Z" fill="#512E4E"/>
<path opacity="0.1" d="M2.68092 27.3674L1.40435 25L1 28.6529C1 28.6529 1.22477 30.2753 1.17958 30.524C1.13438 30.7728 2.10066 33.003 2.10066 33.003C2.10066 33.003 5.2927 38.7059 6.59614 39L11 35.8434L9.83215 34.3558C9.83215 34.3558 9.42781 34.1977 9.32641 34.3558C9.32641 34.3558 7.15807 30.6135 6.9333 30.3427C6.70853 30.0719 6.7525 29.5315 6.7525 29.5315C6.7525 29.5315 6.41534 29.1712 6.52773 28.833C6.64012 28.4948 5.87662 27.3221 5.87662 27.3221L6.57293 26.669L2.68092 27.3674Z" fill="black"/>
<path d="M0.74142 25L0.404299 25.2645L0 28.8483C0 28.8483 0.224747 30.4401 0.179553 30.6842C0.134359 30.9282 1.10175 33.1163 1.10175 33.1163C1.10175 33.1163 4.29217 38.7115 5.59545 39L10 35.903L8.83107 34.4435C8.83107 34.4435 8.42677 34.2885 8.32539 34.4435C8.32539 34.4435 6.15732 30.7719 5.93258 30.5062C5.70783 30.2405 5.75302 29.7103 5.75302 29.7103C5.75302 29.7103 5.4159 29.3569 5.52828 29.0251C5.64065 28.6933 4.87602 27.5427 4.87602 27.5427L5.57225 26.9019L0.74142 25Z" fill="white"/>
<path opacity="0.1" d="M22.671 39.1761C22.927 39.473 22.7657 40.806 22.7657 40.806L22.059 41.9228C22.059 41.9228 22.1013 42.6437 22.1038 43.6151L20.9157 43.9694C20.8084 44.0014 20.6945 44.0084 20.5837 43.9899C20.4729 43.9714 20.3684 43.9278 20.2788 43.8629C20.1892 43.798 20.1172 43.7136 20.0688 43.6167C20.0203 43.5198 19.9969 43.4132 20.0003 43.3059L20.2052 37L22.977 38.0117C22.7414 38.1681 23 38.5517 23 38.5517C23 38.5517 22.4124 38.8792 22.671 39.1761Z" fill="black"/>
<path d="M22.6711 39.1733C22.9271 39.4699 22.7658 40.8032 22.7658 40.8032L22.0594 41.9191C22.0594 41.9191 22.1016 42.6383 22.1055 43.6101L20.8961 43.9703C20.791 44.0015 20.6796 44.0082 20.5712 43.99C20.4628 43.9718 20.3605 43.9291 20.2729 43.8656C20.1853 43.8021 20.1148 43.7195 20.0674 43.6247C20.02 43.5299 19.997 43.4257 20.0003 43.3208L20.2064 37L22.9782 38.0109C22.7415 38.1672 23 38.5494 23 38.5494C23 38.5494 22.4152 38.8778 22.6711 39.1733Z" fill="white"/>
<path d="M23 35.9857C23 35.9857 22.8303 37.1352 22.4053 37.2025C21.9804 37.2698 21.7898 39.062 21.366 38.9983C20.9423 38.9347 21.2229 37.3323 21.2379 37.0213C21.2529 36.7104 20.776 35.4226 21.1328 35.13C21.4896 34.8375 22.6189 35.13 22.6189 35.13L23 35.9857Z" fill="#CF6F80"/>
<path opacity="0.1" d="M24.2044 26.7295L24.9732 25C24.9732 25 25.2789 26.3182 25.2789 27.0223C25.2789 27.7265 25.7065 27.7957 25.7065 27.7957C25.7065 27.7957 26.1751 28.4134 25.9281 28.8631C25.681 29.3127 25.5813 30.432 25.5813 30.432C25.5813 30.432 25.6622 32.568 25.2955 32.8633C24.9288 33.1585 24.8524 33.8639 24.8524 33.8639C24.8524 33.8639 24.1789 35.2043 24.1999 35.523C24.221 35.8418 23.2627 38 23.2627 38C23.2627 38 23.7313 35.318 21.0006 34.1592C21.0006 34.1592 20.9796 33.2487 21.1834 32.9991C21.3872 32.7496 21.7052 32.6359 21.5058 31.3746C21.3064 30.1133 21.4482 28.6061 21.4482 28.3034C21.4482 28.0008 22.0597 26.1131 22.0597 26.1131L24.2044 26.7295Z" fill="black"/>
<path d="M24.9626 25L25.7675 25.2425C25.7675 25.2425 26.1354 26.536 26.1354 27.2271C26.1354 27.9181 26.6481 27.986 26.6481 27.986C26.6481 27.986 27.21 28.5922 26.9138 29.0335C26.6176 29.4748 26.4994 30.5732 26.4994 30.5732C26.4994 30.5732 26.5963 32.6693 26.1567 32.9591C25.7171 33.2488 25.6188 33.9411 25.6188 33.9411C25.6188 33.9411 24.8126 35.2565 24.8378 35.5692C24.863 35.882 23.7128 38 23.7128 38C23.7128 38 24.276 35.368 21.0006 34.2308C21.0006 34.2308 20.9767 33.3373 21.2211 33.0924C21.4655 32.8475 21.8467 32.736 21.6076 31.4982C21.3685 30.2604 21.5386 28.7813 21.5386 28.4843C21.5386 28.1873 22.2717 26.3348 22.2717 26.3348L24.9626 25Z" fill="white"/>
<path opacity="0.1" d="M17 68.006C17 68.006 18.498 67.8834 19.7559 68.7452C21.0139 69.6071 17 68.006 17 68.006Z" fill="black"/>
<g opacity="0.1">
<path opacity="0.1" d="M18.9743 7.5838C18.8209 7.71597 18.6238 7.81073 18.5215 7.98654C18.4342 8.13742 18.4317 8.32321 18.3618 8.4853C18.292 8.6474 18.0886 8.77957 17.9477 8.67733C17.9152 7.55512 17.3614 6.50149 16.6815 5.60372C16.4914 5.33278 16.2604 5.09302 15.9966 4.89299C15.7296 4.69235 15.3973 4.59853 15.0648 4.62989C14.6905 4.68102 14.3612 4.93538 13.9832 4.96656C13.4842 5.00895 13.0364 4.66356 12.5411 4.6461C12.3399 4.6481 12.1414 4.69309 11.9589 4.77803C11.7765 4.86298 11.6143 4.98592 11.4833 5.13863C11.2229 5.44564 11.0295 5.80368 10.9157 6.18976C10.7197 6.77564 10.6128 7.38764 10.5988 8.00525C10.5913 8.35313 10.5589 8.78705 10.2371 8.91673C10.2446 9.00885 10.2446 9.10142 10.2371 9.19354C10.5614 9.06885 10.5938 8.62994 10.6013 8.28081C10.6152 7.66319 10.722 7.05117 10.9182 6.46533C11.032 6.07887 11.2254 5.72043 11.4858 5.41294C11.6171 5.26065 11.7793 5.13807 11.9617 5.05336C12.1441 4.96865 12.3425 4.92376 12.5436 4.92167C13.0426 4.93912 13.4917 5.28327 13.9857 5.24212C14.36 5.21095 14.6918 4.95533 15.0673 4.90546C15.3998 4.87409 15.7321 4.96791 15.9991 5.16855C16.2629 5.36858 16.4939 5.60835 16.684 5.87929C17.3639 6.77581 17.9177 7.82694 17.9502 8.95164C18.0911 9.05514 18.2945 8.92047 18.3643 8.76087C18.4342 8.60126 18.4367 8.41423 18.524 8.26211C18.6263 8.0863 18.8234 7.99278 18.9768 7.86061C19.3661 7.52519 19.4634 6.96035 19.4484 6.44787C19.4484 6.43166 19.4484 6.41545 19.4484 6.40049C19.4247 6.84439 19.3062 7.29701 18.9743 7.5838Z" fill="black"/>
<path opacity="0.1" d="M9.76538 7.49534C9.47846 7.17987 9.08676 6.96915 8.82354 6.63498C8.6019 6.33916 8.47532 5.98305 8.46052 5.61377C8.42127 6.07524 8.55019 6.53534 8.82354 6.90929C9.08676 7.24471 9.47846 7.45544 9.76538 7.7709C10.0409 8.07948 10.2063 8.47062 10.2357 8.88314C10.2548 8.63208 10.223 8.37976 10.1422 8.14129C10.0613 7.90282 9.93319 7.68311 9.76538 7.49534Z" fill="black"/>
<path opacity="0.1" d="M19.6915 3.73095C19.6179 4.03644 19.4869 4.32697 19.4271 4.63495C19.3916 4.84076 19.3786 5.0498 19.3884 5.2584C19.3926 5.13957 19.4055 5.02122 19.4271 4.90428C19.4869 4.59505 19.6179 4.30577 19.6915 4.00028C19.7344 3.83179 19.7484 3.65723 19.7327 3.48407C19.7249 3.56725 19.7112 3.64976 19.6915 3.73095Z" fill="black"/>
</g>
<defs>
<linearGradient id="paint0_linear" x1="13.4987" y1="77.0026" x2="13.4987" y2="0.000137691" gradientUnits="userSpaceOnUse">
<stop stop-color="#808080" stop-opacity="0.25"/>
<stop offset="0.54" stop-color="#808080" stop-opacity="0.12"/>
<stop offset="1" stop-color="#808080" stop-opacity="0.1"/>
</linearGradient>
</defs>
</svg>
