<svg width="77" height="74" viewBox="0 0 77 74" fill="none" xmlns="http://www.w3.org/2000/svg">
<path d="M56.2706 0H56.0859C48.7378 0 42.2393 3.88593 38.5012 9.62007C34.7631 3.88593 28.2646 0 20.9165 0H20.7318C15.2173 0.0525201 9.94625 2.27791 6.06426 6.19256C2.18227 10.1072 0.0029936 15.3948 0 20.9062C0 27.7503 2.99933 37.4614 8.84777 45.4523C19.9906 60.6786 38.5012 74 38.5012 74C38.5012 74 57.0118 60.681 68.1522 45.4523C74.0031 37.4614 77 27.7503 77 20.9062C76.997 15.3952 74.8181 10.108 70.9366 6.19343C67.0551 2.27884 61.7848 0.0531644 56.2706 0ZM53.6284 46.6238C52.7915 46.6206 51.9752 46.3646 51.2865 45.8894C50.5979 45.4141 50.0691 44.7419 49.7696 43.961H45.3765C45.0872 43.9592 44.8057 43.8671 44.5713 43.6977C44.3369 43.5283 44.1613 43.2899 44.0689 43.0159L42.7195 38.9528L38.4495 53.864C38.3664 54.1511 38.1923 54.4034 37.9534 54.5832C37.7145 54.7629 37.4237 54.8603 37.1247 54.8608H37.0385C36.7265 54.8457 36.4291 54.7241 36.1961 54.5162C35.963 54.3084 35.8084 54.0269 35.758 53.7188L31.3575 27.268L28.1415 42.92C28.0677 43.2173 27.8965 43.4814 27.655 43.6701C27.4135 43.8587 27.1158 43.9612 26.8093 43.961H20.621C20.4355 43.9688 20.2503 43.9391 20.0766 43.8735C19.9029 43.808 19.7443 43.708 19.6102 43.5796C19.4762 43.4512 19.3695 43.297 19.2967 43.1264C19.2238 42.9557 19.1862 42.772 19.1862 42.5865C19.1862 42.4009 19.2238 42.2173 19.2967 42.0466C19.3695 41.8759 19.4762 41.7218 19.6102 41.5934C19.7443 41.465 19.9029 41.365 20.0766 41.2994C20.2503 41.2339 20.4355 41.2042 20.621 41.212H25.7258L30.2814 20.1679C30.3562 19.8568 30.5368 19.5813 30.7923 19.3885C31.0479 19.1957 31.3625 19.0976 31.6824 19.111C32.0023 19.1244 32.3076 19.2484 32.5461 19.4618C32.7847 19.6753 32.9416 19.9649 32.9901 20.2812L37.4842 47.2636L41.3109 33.9225C41.3906 33.6415 41.5591 33.3938 41.7912 33.2164C42.0233 33.039 42.3066 32.9414 42.5988 32.9381H42.6259C42.9153 32.9382 43.1973 33.0296 43.4317 33.1993C43.666 33.369 43.8408 33.6083 43.931 33.8831L46.3714 41.2194H49.7155C49.9532 40.4975 50.3859 39.8553 50.9658 39.3636C51.5458 38.872 52.2503 38.55 53.0018 38.4333C53.7532 38.3165 54.5223 38.4095 55.2242 38.7021C55.9261 38.9946 56.5334 39.4752 56.9793 40.0909C57.4251 40.7066 57.692 41.4335 57.7506 42.1912C57.8092 42.949 57.6572 43.7081 57.3113 44.385C56.9654 45.0618 56.4391 45.63 55.7905 46.0268C55.1419 46.4236 54.3962 46.6336 53.6358 46.6336L53.6284 46.6238Z" fill="#063D45"/>
</svg>
