<svg width="247" height="188" viewBox="0 0 247 188" fill="none" xmlns="http://www.w3.org/2000/svg">
<g clip-path="url(#clip0)">
<path d="M218.392 107.468C217.036 118.145 214.218 126.718 210.351 133.555C205.206 142.664 196.404 146.334 188.541 150.175C186.269 151.282 183.906 152.226 181.475 152.998C167.167 157.562 151.154 156.352 138.575 153.942C129.752 152.25 120.796 151.21 111.793 150.83C109.225 150.723 106.655 150.671 104.082 150.671C100.115 150.676 28.6777 151.922 11.2848 119.557C6.99056 111.574 4.04715 101.821 2.98968 89.9329C-0.00262475 56.3238 16.4435 34.2505 37.6572 19.8226C77.7869 -7.46996 132.793 -6.32538 172.331 21.6861C198.668 40.3447 223.327 68.5832 218.392 107.468Z" fill="#F2F2F2"/>
<path d="M77.1875 97.738C77.1875 124.453 59.9085 133.781 38.5938 133.781C17.279 133.781 0 124.453 0 97.738C0 71.0231 38.5938 37.0375 38.5938 37.0375C38.5938 37.0375 77.1875 71.0231 77.1875 97.738Z" fill="#2671B8"/>
<path d="M37.1879 129.694L37.5831 107.336L54.0328 79.6763L37.6451 103.829L37.8226 93.7759L49.1597 73.7642L37.8697 91.1155L38.1892 73.0347L50.3293 57.1028L38.2394 70.1914L38.4391 37.0376L37.1843 80.9273L37.2874 79.1168L24.9446 61.752L37.0896 82.5924L35.9395 102.786L35.9053 102.25L21.6763 83.9758L35.862 104.143L35.7182 106.669L35.6925 106.706L35.7043 106.914L32.7866 158.146H36.6849L37.1526 131.684L51.3037 111.566L37.1879 129.694Z" fill="#3F3D56"/>
<path d="M247 99.3934C247 126.108 229.721 135.436 208.406 135.436C187.092 135.436 169.812 126.108 169.812 99.3934C169.812 72.6785 208.406 38.6929 208.406 38.6929C208.406 38.6929 247 72.6785 247 99.3934Z" fill="#2671B8"/>
<path d="M207 131.35L207.396 108.992L223.845 81.3317L207.458 105.484L207.635 95.4313L218.972 75.4196L207.682 92.7709L208.002 74.6901L220.142 58.7582L208.052 71.8468L208.252 38.693L206.997 82.5827L207.1 80.7722L194.757 63.4074L206.902 84.2478L205.752 104.441L205.718 103.905L191.489 85.6312L205.675 105.799L205.531 108.324L205.505 108.362L205.517 108.569L202.599 159.801H206.497L206.965 133.339L221.116 113.221L207 131.35Z" fill="#3F3D56"/>
<path d="M166.725 76.7046C166.725 105.913 147.833 116.111 124.529 116.111C101.225 116.111 82.3333 105.913 82.3333 76.7046C82.3333 47.4963 124.529 10.3387 124.529 10.3387C124.529 10.3387 166.725 47.4963 166.725 76.7046Z" fill="#2671B8"/>
<path d="M122.992 111.643L123.424 87.1986L141.409 56.9571L123.492 83.3641L123.686 72.3728L136.081 50.4933L123.737 69.464L124.087 49.6956L137.36 32.2767L124.142 46.5871L124.36 10.3389L122.988 58.3249L123.101 56.3453L109.606 37.36L122.885 60.1454L121.627 82.2235L121.59 81.6372L106.033 61.6582L121.543 83.7077L121.385 86.4686L121.357 86.5102L121.37 86.7368L118.18 142.751H122.442L122.953 113.818L138.425 91.8228L122.992 111.643Z" fill="#3F3D56"/>
<path d="M214.067 162.223C214.067 168.492 169.372 188 114.238 188C59.1035 188 14.4084 168.492 14.4084 162.223C14.4084 155.954 55.5014 141.886 110.636 141.886C165.77 141.886 214.067 155.954 214.067 162.223Z" fill="#3F3D56"/>
<path opacity="0.1" d="M214.067 162.223C214.067 168.492 169.372 188 114.238 188C59.1035 188 14.4084 168.492 14.4084 162.223C14.4084 155.954 55.5014 141.886 110.636 141.886C165.77 141.886 214.067 155.954 214.067 162.223Z" fill="black"/>
<path d="M214.067 162.223C214.067 168.492 169.372 173.575 114.238 173.575C59.1035 173.575 14.4084 168.492 14.4084 162.223C14.4084 155.954 55.5014 141.886 110.636 141.886C165.77 141.886 214.067 155.954 214.067 162.223Z" fill="#3F3D56"/>
<path d="M147.796 130.79C147.796 139.783 153.934 147.06 161.52 147.06L147.796 130.79Z" fill="#3F3D56"/>
<path d="M161.52 147.06C161.52 137.966 168.37 130.607 176.835 130.607L161.52 147.06Z" fill="#2671B8"/>
<path d="M152.768 131.605C152.768 140.148 156.683 147.061 161.52 147.061L152.768 131.605Z" fill="#2671B8"/>
<path d="M161.52 147.06C161.52 135.44 169.437 126.037 179.222 126.037L161.52 147.06Z" fill="#3F3D56"/>
<path d="M158.633 147.175C158.633 147.175 160.579 147.12 161.166 146.736C161.752 146.352 164.16 145.894 164.305 146.51C164.451 147.125 167.23 149.572 165.033 149.588C162.835 149.604 159.927 149.273 159.342 148.946C158.756 148.618 158.633 147.175 158.633 147.175Z" fill="#A8A8A8"/>
<path opacity="0.2" d="M165.072 149.374C162.875 149.39 159.966 149.059 159.381 148.731C158.935 148.482 158.757 147.586 158.698 147.173C158.657 147.174 158.633 147.175 158.633 147.175C158.633 147.175 158.756 148.618 159.342 148.946C159.927 149.273 162.835 149.604 165.033 149.588C165.667 149.583 165.886 149.376 165.874 149.069C165.786 149.254 165.544 149.37 165.072 149.374Z" fill="black"/>
<path opacity="0.1" d="M115.524 166.007C134.281 166.007 149.487 163.784 149.487 161.041C149.487 158.298 134.281 156.075 115.524 156.075C96.7671 156.075 81.5615 158.298 81.5615 161.041C81.5615 163.784 96.7671 166.007 115.524 166.007Z" fill="black"/>
<path d="M130.447 149.926H127.102V157.021H130.447V149.926Z" fill="#FFB9B9"/>
<path d="M130.704 54.1504H117.84V75.4339H130.704V54.1504Z" fill="#FF6584"/>
<path d="M140.152 94.4308L140.597 97.7049L128.872 100.979L127.388 94.9766L140.152 94.4308Z" fill="#FFB9B9"/>
<path d="M122.787 62.9186C122.787 62.9186 122.49 65.3741 121.897 65.3741C121.303 65.3741 119.225 66.329 119.225 66.329L118.631 68.921L122.787 71.24L129.614 70.558L131.544 67.8296L129.614 66.0562C129.614 66.0562 127.982 62.7822 128.575 62.1001C129.169 61.4181 122.787 62.9186 122.787 62.9186Z" fill="#FFB9B9"/>
<path opacity="0.1" d="M122.787 62.9186C122.787 62.9186 122.49 65.3741 121.897 65.3741C121.303 65.3741 119.225 66.329 119.225 66.329L118.631 68.921L122.787 71.24L129.614 70.558L131.544 67.8296L129.614 66.0562C129.614 66.0562 127.982 62.7822 128.575 62.1001C129.169 61.4181 122.787 62.9186 122.787 62.9186Z" fill="black"/>
<path d="M104.234 147.906C104.234 147.906 102.899 156.091 101.266 156.637C99.6334 157.182 107.5 158.137 107.5 158.137L108.093 155.136C108.093 155.136 108.242 149.679 108.835 148.861C109.429 148.042 104.234 147.906 104.234 147.906Z" fill="#FFB9B9"/>
<path d="M119.373 100.297C119.373 100.297 140.894 96.7499 141.043 96.0678C141.191 95.3857 145.495 101.252 142.824 112.711C140.152 124.17 133.473 151.18 133.473 151.18C133.473 151.18 126.646 153.09 126.794 151.589C126.943 150.089 129.169 124.033 129.169 124.033L127.685 112.983L125.162 114.348L114.624 133.446L109.281 149.952C109.281 149.952 102.453 151.044 103.492 148.725C104.531 146.405 107.945 128.399 107.945 128.399L117.295 103.025C117.295 103.025 116.999 100.297 119.373 100.297Z" fill="#2F2E41"/>
<path d="M124.791 64.7603C128.233 64.7603 131.024 62.1951 131.024 59.0308C131.024 55.8664 128.233 53.3013 124.791 53.3013C121.348 53.3013 118.557 55.8664 118.557 59.0308C118.557 62.1951 121.348 64.7603 124.791 64.7603Z" fill="#FFB9B9"/>
<path d="M131.247 66.1926C131.247 66.1926 128.279 68.7845 121.303 68.1025C114.327 67.4204 123.232 82.699 123.232 82.699L126.052 98.1141C126.052 98.1141 138.52 96.7499 138.965 94.158C139.41 91.5661 131.247 66.1926 131.247 66.1926Z" fill="#F2F2F2"/>
<path d="M128.278 80.7892C128.278 80.7892 124.716 79.1522 123.381 74.6505C122.045 70.1487 120.858 65.5106 120.115 65.647C119.489 65.7622 113.678 67.8224 111.794 69.2C111.447 69.454 111.233 69.6848 111.21 69.8759C111.062 71.1037 116.553 83.3811 116.553 83.3811C116.553 83.3811 120.858 92.2482 119.076 95.1129C117.295 97.9777 117.147 101.661 120.412 101.388C123.677 101.115 134.512 100.57 133.028 92.9303C133.028 92.9303 135.848 98.2505 143.714 94.4309C143.714 94.4309 148.464 93.7488 148.315 92.2482C148.167 90.7476 140.746 77.7881 140.746 77.7881C140.746 77.7881 139.558 72.0586 141.785 69.8759L136.738 64.4193C136.738 64.4193 135.551 62.7823 134.364 63.6008C133.176 64.4193 130.505 65.7834 130.06 65.9198C129.614 66.0563 129.322 65.4295 129.322 65.4295C128.293 67.4064 127.881 69.6065 128.13 71.7857C128.575 75.3326 128.278 80.7892 128.278 80.7892Z" fill="#2F2E41"/>
<path d="M104.68 155C104.68 155 104.349 154.045 102.436 155C102.436 155 103.047 151.999 100.969 151.999C98.8916 151.999 98.1495 155.545 98.1495 155.545C98.1495 155.545 97.5558 157.864 93.5485 158.819C89.5411 159.774 92.6579 163.048 95.4779 163.048C98.2979 163.048 102.008 161.002 102.008 161.002C102.008 161.002 109.726 161.139 109.875 159.774C110.023 158.41 109.133 154.318 108.539 154.318C107.945 154.318 106.758 156.228 106.758 156.228L104.68 155Z" fill="#2F2E41"/>
<path d="M129.911 152.599C129.911 152.599 127.833 150.553 126.646 153.963C125.458 157.374 124.568 158.738 125.31 159.283C126.052 159.829 126.646 159.556 126.349 160.648C126.052 161.739 127.239 164.058 129.911 164.058C132.583 164.058 133.325 162.285 133.176 161.057C133.028 159.829 131.84 158.328 131.84 158.328L130.653 154.509L129.911 152.599Z" fill="#2F2E41"/>
<path d="M141.636 56.6434L133.77 59.0989C133.77 59.0989 126.646 62.9186 129.763 63.7371C132.88 64.5556 135.551 61.2816 135.551 61.2816L142.378 59.6446L141.636 56.6434Z" fill="#FFB9B9"/>
<path d="M120.549 50.1711C119.615 50.7591 118.872 51.5646 118.165 52.3773C116.729 54.0287 115.321 56.0009 115.675 58.09C115.81 58.8834 116.193 59.6219 116.409 60.4C116.701 61.45 116.681 62.549 116.66 63.6325C116.678 64.0929 116.616 64.5529 116.476 64.9955C116.269 65.4267 116.024 65.8422 115.745 66.2381C115.03 67.4619 115.013 68.9159 115.012 70.3048C114.978 70.7724 115.047 71.2416 115.216 71.6839C115.411 72.1015 115.774 72.429 116.076 72.7894C116.575 73.3983 116.908 74.1084 117.047 74.8601C117.186 75.6118 117.127 76.3832 116.875 77.1096C117.263 77.1112 117.642 77.0111 117.97 76.8212C118.298 76.6313 118.56 76.3595 118.725 76.0375C118.777 76.3837 118.744 76.736 118.63 77.0693C118.516 77.4026 118.323 77.7086 118.066 77.9654C119.765 77.5014 121.586 76.7189 122.206 75.1928C122.388 74.6742 122.491 74.1349 122.511 73.5904C122.841 69.7623 123.029 65.791 121.536 62.2047C121.058 61.0573 120.407 59.9467 120.247 58.727C120.087 57.5073 120.577 56.0977 121.796 55.594C121.824 55.9063 121.975 56.1984 122.22 56.416C122.492 56.6012 122.993 56.4851 122.998 56.1745L123.587 56.9281C123.813 56.8261 124.006 56.6715 124.147 56.4797L124.55 56.9339L125.409 56.3598L126.155 57.0989C126.442 56.9486 126.67 56.7197 126.809 56.4441C126.969 56.6644 127.168 56.9065 127.455 56.9303C128.08 56.9822 128.209 56.0703 128.755 55.7858C128.957 55.7039 129.184 55.6911 129.395 55.75C129.606 55.8088 129.788 55.9352 129.906 56.1063C130.131 56.4585 130.213 56.8726 130.137 57.2752C129.911 59.151 128.17 60.8626 128.686 62.6893C128.977 63.7164 129.954 64.54 130.028 65.5991C130.087 66.4455 129.546 67.2461 129.554 68.0942C129.564 69.0881 130.311 69.9323 131.04 70.6661C132.338 71.9721 133.705 73.2169 135.139 74.4006L134.696 73.688C134.903 73.673 135.111 73.6993 135.306 73.7652C135.5 73.831 135.677 73.9348 135.824 74.0694C135.952 73.6598 135.741 73.2331 135.541 72.8485C134.348 70.5454 133.385 68.0932 133.241 65.5457C133.041 62.0048 134.426 58.4087 133.548 54.956C133.043 53.0228 131.866 51.2936 130.196 50.0305C129.384 49.4162 128.769 49.0483 127.717 48.9806C126.542 48.8867 125.359 48.8952 124.186 49.006C122.889 49.1194 121.642 49.5191 120.549 50.1711Z" fill="#FF6584"/>
<path d="M135.551 64.5557C135.551 64.5557 137.184 64.6922 137.926 64.5557C138.668 64.4193 139.707 63.7372 139.707 63.7372L145.347 59.9176L140.449 60.5997C140.449 60.5997 141.339 54.3245 141.043 54.1881C140.746 54.0517 155.439 51.4598 155.142 55.6887C154.846 59.9176 146.534 68.239 141.785 69.876L138.668 70.2852L135.551 64.5557Z" fill="#2F2E41"/>
<path d="M151.545 112.919H81.5615V128.054H151.545V112.919Z" fill="white"/>
<path d="M142.411 116.348H90.438V124.388H142.411V116.348Z" fill="#3F3D56"/>
<path d="M102.516 120.192C102.495 119.985 101.503 119.894 100.142 119.945C100.931 118.924 101.387 118.11 101.211 117.981C101.044 117.86 100.362 118.384 99.5307 119.234C99.4522 118.093 99.2698 117.294 99.0573 117.294C98.8255 117.294 98.6296 118.245 98.5652 119.552C97.4092 118.788 96.4756 118.34 96.3319 118.507C96.1947 118.667 96.8195 119.341 97.8128 120.147C96.5019 120.326 95.5783 120.578 95.5987 120.781C95.6195 120.987 96.6117 121.079 97.973 121.027C97.1841 122.048 96.7273 122.863 96.904 122.991C97.0708 123.112 97.7531 122.589 98.584 121.739C98.6625 122.879 98.8448 123.679 99.0573 123.679C99.2891 123.679 99.485 122.727 99.5494 121.42C100.705 122.184 101.639 122.633 101.783 122.465C101.92 122.306 101.295 121.632 100.302 120.825C101.613 120.646 102.536 120.394 102.516 120.192Z" fill="white"/>
<path d="M111.264 120.192C111.243 119.985 110.251 119.894 108.889 119.945C109.678 118.924 110.135 118.11 109.958 117.981C109.792 117.86 109.109 118.384 108.279 119.234C108.2 118.093 108.018 117.294 107.805 117.294C107.573 117.294 107.377 118.245 107.313 119.552C106.157 118.788 105.223 118.34 105.08 118.507C104.943 118.667 105.567 119.341 106.561 120.147C105.25 120.326 104.326 120.578 104.347 120.781C104.367 120.987 105.359 121.079 106.721 121.027C105.932 122.048 105.475 122.863 105.652 122.991C105.819 123.112 106.501 122.589 107.332 121.739C107.41 122.879 107.593 123.679 107.805 123.679C108.037 123.679 108.233 122.727 108.297 121.42C109.453 122.184 110.387 122.633 110.531 122.465C110.668 122.306 110.043 121.632 109.05 120.825C110.361 120.646 111.284 120.394 111.264 120.192Z" fill="white"/>
<path d="M120.012 120.192C119.991 119.985 118.999 119.894 117.638 119.945C118.426 118.924 118.883 118.11 118.706 117.981C118.54 117.86 117.857 118.384 117.027 119.234C116.948 118.093 116.766 117.294 116.553 117.294C116.321 117.294 116.125 118.245 116.061 119.552C114.905 118.788 113.971 118.34 113.828 118.507C113.691 118.667 114.315 119.341 115.309 120.147C113.998 120.326 113.074 120.578 113.095 120.781C113.115 120.987 114.108 121.079 115.469 121.027C114.68 122.048 114.223 122.863 114.4 122.991C114.567 123.112 115.249 122.589 116.08 121.739C116.158 122.879 116.341 123.679 116.553 123.679C116.785 123.679 116.981 122.727 117.045 121.42C118.201 122.184 119.135 122.633 119.279 122.465C119.416 122.306 118.791 121.632 117.798 120.825C119.109 120.646 120.032 120.394 120.012 120.192Z" fill="white"/>
<path d="M128.76 120.192C128.739 119.985 127.747 119.894 126.385 119.945C127.174 118.924 127.631 118.11 127.454 117.981C127.288 117.86 126.605 118.384 125.774 119.234C125.696 118.093 125.514 117.294 125.301 117.294C125.069 117.294 124.873 118.245 124.809 119.552C123.653 118.788 122.719 118.34 122.576 118.507C122.438 118.667 123.063 119.341 124.056 120.147C122.746 120.326 121.822 120.578 121.842 120.781C121.863 120.987 122.855 121.079 124.217 121.027C123.428 122.048 122.971 122.863 123.148 122.991C123.314 123.112 123.997 122.589 124.828 121.739C124.906 122.879 125.088 123.679 125.301 123.679C125.533 123.679 125.729 122.727 125.793 121.42C126.949 122.184 127.883 122.633 128.026 122.465C128.164 122.306 127.539 121.632 126.546 120.825C127.856 120.646 128.78 120.394 128.76 120.192Z" fill="white"/>
<path d="M137.508 120.192C137.487 119.985 136.495 119.894 135.133 119.945C135.922 118.924 136.379 118.11 136.202 117.981C136.036 117.86 135.353 118.384 134.522 119.234C134.444 118.093 134.262 117.294 134.049 117.294C133.817 117.294 133.621 118.245 133.557 119.552C132.401 118.788 131.467 118.34 131.324 118.507C131.186 118.667 131.811 119.341 132.805 120.147C131.494 120.326 130.57 120.578 130.59 120.781C130.611 120.987 131.603 121.079 132.965 121.027C132.176 122.048 131.719 122.863 131.896 122.991C132.062 123.112 132.745 122.589 133.576 121.739C133.654 122.879 133.837 123.679 134.049 123.679C134.281 123.679 134.477 122.727 134.541 121.42C135.697 122.184 136.631 122.633 136.774 122.465C136.912 122.306 136.287 121.632 135.294 120.825C136.605 120.646 137.528 120.394 137.508 120.192Z" fill="white"/>
<path d="M110.32 106.435C110.32 106.435 109.578 115.439 113.14 115.848C116.702 116.257 113.437 105.617 113.437 105.617L110.32 106.435Z" fill="#FFB9B9"/>
<path d="M112.249 69.603L111.21 69.8759C111.21 69.8759 106.906 101.524 109.726 107.663C109.726 107.663 112.694 106.163 114.179 106.435L116.553 80.6528L112.249 69.603Z" fill="#2F2E41"/>
</g>
<defs>
<clipPath id="clip0">
<rect width="247" height="188" fill="white"/>
</clipPath>
</defs>
</svg>
