<svg width="247" height="188" viewBox="0 0 247 188" fill="none" xmlns="http://www.w3.org/2000/svg">
<g clip-path="url(#clip0)">
<path d="M62.7506 18.9259C64.61 21.412 66.6161 24.2569 68.5959 27.3575L68.8786 13.0557L69.0346 13.1556C66.9228 11.6069 64.6038 10.3643 62.146 9.46448L62.302 9.55137L62.7506 18.9259Z" fill="#E6E6E6"/>
<path d="M61.9892 9.40962C59.4393 8.53791 56.9652 8.24872 54.7037 8.65301C54.586 8.67406 54.4704 8.69826 54.355 8.72282C54.9296 9.34078 58.2782 12.9903 62.4236 18.4905L61.9892 9.40962Z" fill="#E6E6E6"/>
<path d="M76.9092 42.9897C77.2141 43.7193 77.504 44.444 77.779 45.1637L83.0121 29.6747L83.1626 29.8186C82.5446 28.6535 81.8896 27.5207 81.1974 26.4203L76.9805 43.0528L76.9092 42.9897Z" fill="#E6E6E6"/>
<path d="M73.8533 36.4578L76.5881 20.2187L76.7434 20.3433C74.5139 17.6954 71.9795 15.3214 69.193 13.2711L68.9048 27.8455C70.7472 30.76 72.3967 33.6308 73.8533 36.4578Z" fill="#E6E6E6"/>
<path d="M46.0625 24.9671L45.9985 24.7689C46.2355 27.2254 46.7194 29.6517 47.4429 32.0107L72.5892 34.6107C71.2764 32.184 69.9213 29.9074 68.6057 27.8325L46.0625 24.9671Z" fill="#E6E6E6"/>
<path d="M47.5688 32.4067L47.5024 32.2086C47.7568 33.0401 48.042 33.8809 48.358 34.731L48.2902 34.5332L73.7406 36.8009C73.4332 36.198 73.1223 35.6031 72.8079 35.0163L47.5688 32.4067Z" fill="#E6E6E6"/>
<path d="M76.7289 42.5672L80.9106 26.0733L81.0637 26.2086C79.8019 24.2193 78.4076 22.3176 76.8904 20.5165L74.1187 36.9752C75.0793 38.8658 75.9494 40.7298 76.7289 42.5672Z" fill="#E6E6E6"/>
<path d="M77.7934 45.992L53.0269 43.6013C54.3735 45.4197 55.8402 47.1455 57.4171 48.7672L57.3556 48.5474L79.9945 53.216C79.4056 50.7661 78.6706 48.3537 77.7934 45.992Z" fill="#E6E6E6"/>
<path d="M54.1504 8.87961L54.2087 8.75427C50.8041 9.52907 48.4003 11.851 47.0776 15.212L62.2279 18.6435C57.7414 12.6939 54.2013 8.93344 54.1504 8.87961Z" fill="#E6E6E6"/>
<path d="M78.2376 46.3928C79.0151 48.528 79.6761 50.704 80.2176 52.9111L86.1153 38.0837L86.2593 38.2285C85.8859 36.1652 85.2533 34.1577 84.3764 32.2539C84.0285 31.5074 83.6643 30.7722 83.2839 30.0482L77.9883 45.7219C78.0719 45.9457 78.1569 46.17 78.2376 46.3928Z" fill="#E6E6E6"/>
<path d="M68.3424 27.4189C66.3829 24.355 64.3996 21.5442 62.5614 19.0874L47.0635 15.577L47.011 15.381C46.0435 17.935 45.6897 21.0726 45.9828 24.5769L68.3424 27.4189Z" fill="#E6E6E6"/>
<path d="M52.7258 43.1883L77.6339 45.5926L77.6389 45.5778C76.5584 42.7221 75.3252 39.9269 73.9447 37.2042L48.4316 34.9309C48.8648 36.0807 49.3544 37.2428 49.9003 38.4172C50.6954 40.0904 51.6412 41.6874 52.7258 43.1883Z" fill="#E6E6E6"/>
<path d="M112.923 48.0312L112.98 48.2079C112.339 45.6649 111.343 43.2253 110.023 40.9608L110.088 41.1275L104.468 48.6345C104.319 51.7381 104.053 55.2118 103.605 58.8656L112.923 48.0312Z" fill="#E6E6E6"/>
<path d="M109.937 40.8182C108.528 38.5166 106.806 36.712 104.807 35.5775C104.703 35.5185 104.599 35.4632 104.494 35.4083C104.544 36.2517 104.801 41.2034 104.494 48.09L109.937 40.8182Z" fill="#E6E6E6"/>
<path d="M100.062 76.2206C99.8326 76.9775 99.5948 77.721 99.3486 78.4512L113.235 69.8675L113.259 70.0746C113.524 68.7821 113.74 67.4908 113.908 66.2007L100.077 76.3148L100.062 76.2206Z" fill="#E6E6E6"/>
<path d="M101.865 69.2362L114.304 58.4775L114.344 58.6727C114.312 55.2079 113.87 51.7591 113.029 48.3984L103.533 59.4392C103.098 62.8619 102.542 66.1275 101.865 69.2362Z" fill="#E6E6E6"/>
<path d="M114.347 58.9001L101.74 69.8043C101.277 71.8747 100.761 73.8666 100.192 75.7801L113.908 65.7504L113.94 65.9524C114.234 63.6135 114.37 61.2574 114.347 58.9001Z" fill="#E6E6E6"/>
<path d="M90.0158 95.7228C90.0269 95.5527 90.0375 95.3779 90.0476 95.1985C92.2944 92.5154 94.2106 89.5706 95.7546 86.4279L88.1405 76.9166C88.0407 76.5921 87.9363 76.2684 87.8272 75.9454L95.9317 86.0693C97.037 83.8058 98.0058 81.4779 98.833 79.0981L82.8039 62.9576C82.854 62.8309 82.9047 62.7011 82.9559 62.5689L98.9644 78.6887L98.9777 78.6805C99.9625 75.7903 100.791 72.8489 101.46 69.8693L85.5636 54.0954C85.5969 53.9489 85.6299 53.8017 85.6623 53.6537L101.56 69.4282C101.707 68.7673 101.846 68.1104 101.977 67.4574L86.1265 51.2789C86.153 51.1245 86.1788 50.9696 86.2039 50.814L102.067 67.0053C102.6 64.297 103.005 61.6771 103.312 59.2379L87.7721 42.6179L87.849 42.4244C87.4808 42.9619 87.1231 43.5258 86.7743 44.1098C86.7837 42.2629 86.634 40.4186 86.327 38.5974L80.3729 53.5668C80.854 55.6308 81.1987 57.7243 81.4048 59.8338C81.3687 60.1906 81.3362 60.5494 81.3103 60.9119L81.506 61.1089C81.5184 61.3012 81.5299 61.4932 81.5395 61.6843L81.2792 61.4222C81.2669 61.6323 81.2576 61.8439 81.2486 62.0555C81.1267 59.2085 80.7376 56.3793 80.0864 53.6054L57.6131 48.9709C58.7451 50.1357 59.9316 51.2676 61.144 52.3594C58.7905 51.62 56.3483 51.2017 53.8833 51.1157L54.0584 51.15L57.3758 59.9265C59.9107 61.7147 62.6958 63.7987 65.5347 66.134L61.4508 52.6343C61.6022 52.7693 61.7539 52.9036 61.9059 53.0373L65.9792 66.5024C68.6301 68.7033 71.084 70.9224 73.3411 73.1596L71.4692 60.4874C71.6004 60.5791 71.731 60.67 71.8608 60.7601L73.753 73.5695C75.2496 75.0699 76.6519 76.573 77.9598 78.0789L77.0525 64.1856C77.1813 64.2664 77.3077 64.3453 77.4318 64.4226L78.3486 78.4626L78.2613 78.4247C78.7763 79.0242 79.2755 79.6236 79.7589 80.2228L79.9343 65.9381C80.0693 66.0174 80.1942 66.0903 80.3088 66.1569L80.1303 80.6889C80.2788 80.8758 80.4288 81.0628 80.5743 81.2497C81.9721 83.0394 83.2716 84.904 84.4672 86.8353L84.5518 85.5356C84.656 85.9209 84.7604 86.2997 84.8648 86.6719L84.8167 87.411C84.991 87.7016 85.1603 87.992 85.3269 88.2822C85.457 88.7248 85.5857 89.1553 85.7131 89.5734C85.3439 88.8876 84.9582 88.2086 84.5561 87.5364L61.7543 90.0921C73.7434 96.4139 88.621 99.4108 89.5692 99.5977C89.3443 98.6006 89.0708 97.6123 88.7561 96.6333C88.838 96.5474 88.9188 96.4605 88.9999 96.3737C89.0386 96.4906 89.0786 96.6076 89.116 96.7244C89.0737 96.7697 89.032 96.8163 88.9895 96.8614C89.0364 96.8392 89.0856 96.8159 89.1369 96.7914C89.3559 97.4797 89.5523 98.1658 89.726 98.8496C89.7953 98.2941 89.8882 97.4504 89.9693 96.3834C94.0757 94.3227 104.711 88.3005 110.11 78.859L95.9998 86.5814C94.3917 89.8659 92.3815 92.9367 90.0158 95.7228ZM85.3405 73.419L85.3754 72.8827L85.7333 73.3298L85.6984 73.866L85.3405 73.419Z" fill="#E6E6E6"/>
<path d="M104.237 35.3987L104.362 35.3395C101.247 33.7595 97.9179 34.0109 94.7607 35.7538L104.246 48.0831C104.576 40.6323 104.242 35.4727 104.237 35.3987Z" fill="#E6E6E6"/>
<path d="M98.9199 79.6911C98.1602 81.8327 97.2847 83.9312 96.2974 85.9773L110.274 78.3281L110.293 78.5317C111.318 76.7039 112.108 74.7533 112.644 72.7263C112.851 71.929 113.039 71.1299 113.206 70.329L99.1547 79.015C99.0767 79.2408 98.9995 79.4679 98.9199 79.6911Z" fill="#E6E6E6"/>
<path d="M104.22 48.6382L94.5173 36.0259L94.6017 35.8413C92.2314 37.1898 89.9626 39.3802 87.9585 42.2665L103.371 58.7512C103.812 55.1385 104.073 51.7057 104.22 48.6382Z" fill="#E6E6E6"/>
<path d="M53.7167 51.1121C51.0229 51.0732 48.5808 51.5647 46.5547 52.6499C46.4493 52.7064 46.3468 52.7652 46.2446 52.8243C46.9817 53.234 51.2917 55.6673 56.93 59.6137L53.7167 51.1121Z" fill="#E6E6E6"/>
<path d="M65.6909 66.5826L43.368 70.8424L43.2461 70.6738C44.2289 72.9366 45.4372 75.0941 46.8527 77.1134L71.5694 71.7947C69.5727 69.8936 67.5819 68.1484 65.6909 66.5826Z" fill="#E6E6E6"/>
<path d="M73.3395 73.5209C72.8613 73.0428 72.3822 72.5734 71.9023 72.1127L47.0944 77.4511L46.9702 77.2832C47.4685 77.9952 47.999 78.7065 48.5616 79.417L48.4362 79.2499L73.3395 73.5209Z" fill="#E6E6E6"/>
<path d="M84.3487 87.1945C83.0331 85.0471 81.5902 82.9806 80.0278 81.0063L55.7368 86.4064C57.5782 87.7184 59.5053 88.9053 61.505 89.9591L61.3788 89.769L84.3487 87.1945Z" fill="#E6E6E6"/>
<path d="M46.099 53.0368L46.1159 52.8995C43.1169 54.6913 41.5467 57.6444 41.3252 61.2505L56.7917 59.8198C50.6903 55.5516 46.1641 53.0722 46.099 53.0368Z" fill="#E6E6E6"/>
<path d="M57.2455 60.1387L41.4241 61.6021L41.3137 61.432C41.1811 64.1607 41.8121 67.2542 43.1714 70.4962L65.3125 66.2711C62.5041 63.9643 59.7513 61.9057 57.2455 60.1387Z" fill="#E6E6E6"/>
<path d="M79.7534 80.6601C77.8452 78.279 75.8104 76.0028 73.658 73.8411L48.6934 79.5842C49.4598 80.5435 50.2837 81.497 51.1651 82.4448C52.4372 83.7896 53.8291 85.0154 55.3234 86.1068L79.7532 80.6757L79.7534 80.6601Z" fill="#E6E6E6"/>
<path d="M62.7506 18.9259C64.61 21.412 66.6161 24.2569 68.5959 27.3575L68.8786 13.0557L69.0346 13.1556C66.9228 11.6069 64.6038 10.3643 62.146 9.46448L62.302 9.55137L62.7506 18.9259Z" fill="#2671B8"/>
<path d="M61.9892 9.40962C59.4393 8.53791 56.9652 8.24872 54.7037 8.65301C54.586 8.67406 54.4704 8.69826 54.355 8.72282C54.9296 9.34078 58.2782 12.9903 62.4236 18.4905L61.9892 9.40962Z" fill="#2671B8"/>
<path d="M76.9092 42.9897C77.2141 43.7193 77.504 44.444 77.779 45.1637L83.0121 29.6747L83.1626 29.8186C82.5446 28.6535 81.8896 27.5207 81.1974 26.4203L76.9805 43.0528L76.9092 42.9897Z" fill="#2671B8"/>
<path d="M73.8533 36.4578L76.5881 20.2187L76.7434 20.3433C74.5139 17.6954 71.9795 15.3214 69.193 13.2711L68.9048 27.8455C70.7472 30.76 72.3967 33.6308 73.8533 36.4578Z" fill="#2671B8"/>
<path d="M46.0625 24.9671L45.9985 24.7689C46.2355 27.2254 46.7194 29.6517 47.4429 32.0107L72.5892 34.6107C71.2764 32.184 69.9213 29.9074 68.6057 27.8325L46.0625 24.9671Z" fill="#2671B8"/>
<path d="M47.5688 32.4067L47.5024 32.2086C47.7568 33.0401 48.042 33.8809 48.358 34.731L48.2902 34.5332L73.7406 36.8009C73.4332 36.198 73.1223 35.6031 72.8079 35.0163L47.5688 32.4067Z" fill="#2671B8"/>
<path d="M76.7289 42.5672L80.9106 26.0733L81.0637 26.2086C79.8019 24.2193 78.4076 22.3176 76.8904 20.5165L74.1187 36.9752C75.0793 38.8658 75.9494 40.7298 76.7289 42.5672Z" fill="#2671B8"/>
<path d="M77.7934 45.992L53.0269 43.6013C54.3735 45.4197 55.8402 47.1455 57.4171 48.7672L57.3556 48.5474L79.9945 53.216C79.4056 50.7661 78.6706 48.3537 77.7934 45.992Z" fill="#2671B8"/>
<path d="M54.1504 8.87961L54.2087 8.75427C50.8041 9.52907 48.4003 11.851 47.0776 15.212L62.2279 18.6435C57.7414 12.6939 54.2013 8.93344 54.1504 8.87961Z" fill="#2671B8"/>
<path d="M78.2376 46.3928C79.0151 48.528 79.6761 50.704 80.2176 52.9111L86.1153 38.0837L86.2593 38.2285C85.8859 36.1652 85.2533 34.1577 84.3764 32.2539C84.0285 31.5074 83.6643 30.7722 83.2839 30.0482L77.9883 45.7219C78.0719 45.9457 78.1569 46.17 78.2376 46.3928Z" fill="#2671B8"/>
<path d="M68.3424 27.4189C66.3829 24.355 64.3996 21.5442 62.5614 19.0874L47.0635 15.577L47.011 15.381C46.0435 17.935 45.6897 21.0726 45.9828 24.5769L68.3424 27.4189Z" fill="#2671B8"/>
<path d="M52.7258 43.1883L77.6339 45.5926L77.6389 45.5778C76.5584 42.7221 75.3252 39.9269 73.9447 37.2042L48.4316 34.9309C48.8648 36.0807 49.3544 37.2428 49.9003 38.4172C50.6954 40.0904 51.6412 41.6874 52.7258 43.1883Z" fill="#2671B8"/>
<path d="M112.923 48.0312L112.98 48.2079C112.339 45.6649 111.343 43.2253 110.023 40.9608L110.088 41.1275L104.468 48.6345C104.319 51.7381 104.053 55.2118 103.605 58.8656L112.923 48.0312Z" fill="#2671B8"/>
<path d="M109.937 40.8182C108.528 38.5166 106.806 36.712 104.807 35.5775C104.703 35.5185 104.599 35.4632 104.494 35.4083C104.544 36.2517 104.801 41.2034 104.494 48.09L109.937 40.8182Z" fill="#2671B8"/>
<path d="M100.062 76.2206C99.8326 76.9775 99.5948 77.721 99.3486 78.4512L113.235 69.8675L113.259 70.0746C113.524 68.7821 113.74 67.4908 113.908 66.2007L100.077 76.3148L100.062 76.2206Z" fill="#2671B8"/>
<path d="M101.865 69.2362L114.304 58.4775L114.344 58.6727C114.312 55.2079 113.87 51.7591 113.029 48.3984L103.533 59.4392C103.098 62.8619 102.542 66.1275 101.865 69.2362Z" fill="#2671B8"/>
<path d="M114.347 58.9001L101.74 69.8043C101.277 71.8747 100.761 73.8666 100.192 75.7801L113.908 65.7504L113.94 65.9524C114.234 63.6135 114.37 61.2574 114.347 58.9001Z" fill="#2671B8"/>
<path d="M90.0158 95.7228C90.0269 95.5527 90.0375 95.3779 90.0476 95.1985C92.2944 92.5154 94.2106 89.5706 95.7546 86.4279L88.1405 76.9166C88.0407 76.5921 87.9363 76.2684 87.8272 75.9454L95.9317 86.0693C97.037 83.8058 98.0058 81.4779 98.833 79.0981L82.8039 62.9576C82.854 62.8309 82.9047 62.7011 82.9559 62.5689L98.9644 78.6887L98.9777 78.6805C99.9625 75.7903 100.791 72.8489 101.46 69.8693L85.5636 54.0954C85.5969 53.9489 85.6299 53.8017 85.6623 53.6537L101.56 69.4282C101.707 68.7673 101.846 68.1104 101.977 67.4574L86.1265 51.2789C86.153 51.1245 86.1788 50.9696 86.2039 50.814L102.067 67.0053C102.6 64.297 103.005 61.6771 103.312 59.2379L87.7721 42.6179L87.849 42.4244C87.4808 42.9619 87.1231 43.5258 86.7743 44.1098C86.7837 42.2629 86.634 40.4186 86.327 38.5974L80.3729 53.5668C80.854 55.6308 81.1987 57.7243 81.4048 59.8338C81.3687 60.1906 81.3362 60.5494 81.3103 60.9119L81.506 61.1089C81.5184 61.3012 81.5299 61.4932 81.5395 61.6843L81.2792 61.4222C81.2669 61.6323 81.2576 61.8439 81.2486 62.0555C81.1267 59.2085 80.7376 56.3793 80.0864 53.6054L57.6131 48.9709C58.7451 50.1357 59.9316 51.2676 61.144 52.3594C58.7905 51.62 56.3483 51.2017 53.8833 51.1157L54.0584 51.15L57.3758 59.9265C59.9107 61.7147 62.6958 63.7987 65.5347 66.134L61.4508 52.6343C61.6022 52.7693 61.7539 52.9036 61.9059 53.0373L65.9792 66.5024C68.6301 68.7033 71.084 70.9224 73.3411 73.1596L71.4692 60.4874C71.6004 60.5791 71.731 60.67 71.8608 60.7601L73.753 73.5695C75.2496 75.0699 76.6519 76.573 77.9598 78.0789L77.0525 64.1856C77.1813 64.2664 77.3077 64.3453 77.4318 64.4226L78.3486 78.4626L78.2613 78.4247C78.7763 79.0242 79.2755 79.6236 79.7589 80.2228L79.9343 65.9381C80.0693 66.0174 80.1942 66.0903 80.3088 66.1569L80.1303 80.6889C80.2788 80.8758 80.4288 81.0628 80.5743 81.2497C81.9721 83.0394 83.2716 84.904 84.4672 86.8353L84.5518 85.5356C84.656 85.9209 84.7604 86.2997 84.8648 86.6719L84.8167 87.411C84.991 87.7016 85.1603 87.992 85.3269 88.2822C85.457 88.7248 85.5857 89.1553 85.7131 89.5734C85.3439 88.8876 84.9582 88.2086 84.5561 87.5364L61.7543 90.0921C73.7434 96.4139 88.621 99.4108 89.5692 99.5977C89.3443 98.6006 89.0708 97.6123 88.7561 96.6333C88.838 96.5474 88.9188 96.4605 88.9999 96.3737C89.0386 96.4906 89.0786 96.6076 89.116 96.7244C89.0737 96.7697 89.032 96.8163 88.9895 96.8614C89.0364 96.8392 89.0856 96.8159 89.1369 96.7914C89.3559 97.4797 89.5523 98.1658 89.726 98.8496C89.7953 98.2941 89.8882 97.4504 89.9693 96.3834C94.0757 94.3227 104.711 88.3005 110.11 78.859L95.9998 86.5814C94.3917 89.8659 92.3815 92.9367 90.0158 95.7228ZM85.3405 73.419L85.3754 72.8827L85.7333 73.3298L85.6984 73.866L85.3405 73.419Z" fill="#2671B8"/>
<path d="M104.237 35.3987L104.362 35.3395C101.247 33.7595 97.9179 34.0109 94.7607 35.7538L104.246 48.0831C104.576 40.6323 104.242 35.4727 104.237 35.3987Z" fill="#2671B8"/>
<path d="M98.9199 79.6911C98.1602 81.8327 97.2847 83.9312 96.2974 85.9773L110.274 78.3281L110.293 78.5317C111.318 76.7039 112.108 74.7533 112.644 72.7263C112.851 71.929 113.039 71.1299 113.206 70.329L99.1547 79.015C99.0767 79.2408 98.9995 79.4679 98.9199 79.6911Z" fill="#2671B8"/>
<path d="M104.22 48.6382L94.5173 36.0259L94.6017 35.8413C92.2314 37.1898 89.9626 39.3802 87.9585 42.2665L103.371 58.7512C103.812 55.1385 104.073 51.7057 104.22 48.6382Z" fill="#2671B8"/>
<path d="M53.7167 51.1121C51.0229 51.0732 48.5808 51.5647 46.5547 52.6499C46.4493 52.7064 46.3468 52.7652 46.2446 52.8243C46.9817 53.234 51.2917 55.6673 56.93 59.6137L53.7167 51.1121Z" fill="#2671B8"/>
<path d="M65.6909 66.5826L43.368 70.8424L43.2461 70.6738C44.2289 72.9366 45.4372 75.0941 46.8527 77.1134L71.5694 71.7947C69.5727 69.8936 67.5819 68.1484 65.6909 66.5826Z" fill="#2671B8"/>
<path d="M73.3395 73.5209C72.8613 73.0428 72.3822 72.5734 71.9023 72.1127L47.0944 77.4511L46.9702 77.2832C47.4685 77.9952 47.999 78.7065 48.5616 79.417L48.4362 79.2499L73.3395 73.5209Z" fill="#2671B8"/>
<path d="M84.3487 87.1945C83.0331 85.0471 81.5902 82.9806 80.0278 81.0063L55.7368 86.4064C57.5782 87.7184 59.5053 88.9053 61.505 89.9591L61.3788 89.769L84.3487 87.1945Z" fill="#2671B8"/>
<path d="M46.099 53.0368L46.1159 52.8995C43.1169 54.6913 41.5467 57.6444 41.3252 61.2505L56.7917 59.8198C50.6903 55.5516 46.1641 53.0722 46.099 53.0368Z" fill="#2671B8"/>
<path d="M57.2455 60.1387L41.4241 61.6021L41.3137 61.432C41.1811 64.1607 41.8121 67.2542 43.1714 70.4962L65.3125 66.2711C62.5041 63.9643 59.7513 61.9057 57.2455 60.1387Z" fill="#2671B8"/>
<path d="M79.7534 80.6601C77.8452 78.279 75.8104 76.0028 73.658 73.8411L48.6934 79.5842C49.4598 80.5435 50.2837 81.497 51.1651 82.4448C52.4372 83.7896 53.8291 85.0154 55.3234 86.1068L79.7532 80.6757L79.7534 80.6601Z" fill="#2671B8"/>
<path d="M224.237 15.5279C224.237 15.5279 220.578 25.969 222.83 27.5753C225.082 29.1817 215.229 42.3 215.229 42.3L203.405 39.0873L209.88 28.1108C209.88 28.1108 210.725 17.1342 210.725 15.5279C210.725 13.9216 224.237 15.5279 224.237 15.5279Z" fill="#FFB8B8"/>
<path opacity="0.1" d="M224.237 15.5279C224.237 15.5279 220.578 25.969 222.83 27.5753C225.082 29.1817 215.229 42.3 215.229 42.3L203.405 39.0873L209.88 28.1108C209.88 28.1108 210.725 17.1342 210.725 15.5279C210.725 13.9216 224.237 15.5279 224.237 15.5279Z" fill="black"/>
<path d="M230.38 89.9542C230.38 89.9542 231.448 103.34 230.38 110.301C229.312 117.262 227.709 136.538 227.709 136.538C227.709 136.538 227.709 172.948 221.833 173.483C215.958 174.019 211.684 174.554 211.15 172.412C210.616 170.271 213.821 169.2 212.219 168.129C210.616 167.058 210.082 163.31 212.219 159.026C214.355 154.743 212.219 111.372 212.219 111.372L202.07 138.679C202.07 138.679 201.001 161.168 199.933 164.381C198.865 167.593 201.001 173.483 197.262 174.019C193.523 174.554 189.25 171.341 187.113 170.271C184.977 169.2 190.318 169.2 189.25 168.664C188.182 168.129 184.977 166.522 186.045 165.987C187.113 165.452 188.182 139.75 188.182 139.75C188.182 139.75 191.12 84.8675 194.859 82.7258C198.598 80.584 201.001 84.2731 201.001 84.2731L230.38 89.9542Z" fill="#2F2E41"/>
<path d="M220.765 171.629V175.913C220.765 175.913 225.573 187.557 220.765 187.557C215.958 187.557 212.219 188.763 212.219 187.157V172.7L220.765 171.629Z" fill="#2F2E41"/>
<path d="M189.25 171.334V175.617C189.25 175.617 184.443 187.261 189.25 187.261C194.057 187.261 197.796 188.468 197.796 186.862V172.405L189.25 171.334Z" fill="#2F2E41"/>
<path d="M216.759 23.2917C222.069 23.2917 226.374 18.9766 226.374 13.6537C226.374 8.33081 222.069 4.01575 216.759 4.01575C211.449 4.01575 207.145 8.33081 207.145 13.6537C207.145 18.9766 211.449 23.2917 216.759 23.2917Z" fill="#FFB8B8"/>
<path d="M219.697 31.5911C219.697 31.5911 217.026 39.6227 212.753 38.0164L208.48 36.41L201.001 87.8125C201.001 87.8125 206.877 96.3795 215.424 91.0251C223.97 85.6707 219.697 31.5911 219.697 31.5911Z" fill="#D0CDE1"/>
<path d="M212.219 29.9848L209.815 24.8981C209.815 24.8981 195.66 31.5911 193.523 33.7329C191.387 35.8746 191.387 39.0873 191.387 39.0873L195.126 52.4733C195.126 52.4733 194.057 81.9226 194.057 82.9935C194.057 84.0644 190.318 89.9543 192.989 87.8125C195.66 85.6707 196.194 83.529 198.331 86.7416C200.467 89.9543 205.275 93.7024 205.275 93.7024L212.219 29.9848Z" fill="#D0CDE1"/>
<path d="M193.524 68.5366L195.126 83.5289C195.126 83.5289 204.741 92.096 202.604 92.6314C200.468 93.1669 199.399 91.0251 199.399 91.0251C199.399 91.0251 195.66 94.7732 193.524 92.6314C191.387 90.4897 186.045 70.1429 186.045 70.1429L193.524 68.5366Z" fill="#FFB8B8"/>
<path d="M216.554 0.0325906C218.685 -0.0437898 220.966 -0.0815741 222.764 1.06982C223.59 1.64766 224.316 2.35932 224.91 3.17568C226.66 5.3937 228.172 8.18447 227.522 10.9364L226.767 10.6412C226.767 11.3758 226.93 12.1012 227.244 12.7649C227.138 12.455 226.782 12.956 226.877 13.2695L227.709 16.0051C226.341 15.5026 224.64 16.52 224.432 17.9649C224.337 14.7876 224.008 11.1442 221.437 9.28369C220.14 8.34547 218.499 8.05905 216.92 7.80471C215.464 7.57007 213.937 7.34633 212.542 7.82701C211.146 8.3077 209.958 9.738 210.275 11.1825C209.631 10.9603 208.912 11.4097 208.594 12.0127C208.276 12.6157 208.259 13.3271 208.25 14.0091C207.564 14.4949 206.784 13.5302 206.504 12.7365C205.848 10.8733 205.265 8.89005 205.618 6.94629C205.972 5.00252 207.552 3.14495 209.523 3.13836C209.284 2.87495 209.156 2.52858 209.167 2.17252L210.792 2.03492C210.379 1.97638 210 1.77593 209.719 1.46789C210.371 2.18734 215.499 0.0703892 216.554 0.0325906Z" fill="#2F2E41"/>
<path d="M217.026 28.3785C217.026 28.3785 221.375 24.1071 222.939 24.3687C224.504 24.6304 226.641 28.3785 226.641 28.3785C226.641 28.3785 239.461 32.662 238.927 36.9455C238.392 41.2291 232.517 62.1113 232.517 62.1113C232.517 62.1113 227.709 87.2771 231.983 89.9543C236.256 92.6315 211.685 99.5922 211.151 96.3796C210.616 93.1669 209.548 61.0404 211.151 56.2214C212.753 51.4025 217.026 28.3785 217.026 28.3785Z" fill="#D0CDE1"/>
<path d="M198.331 36.9454H191.726C191.726 36.9454 187.114 57.2922 186.58 59.434C186.045 61.5758 184.977 71.7492 185.511 71.7492C186.045 71.7492 196.728 69.6074 196.728 71.2137L198.331 36.9454Z" fill="#D0CDE1"/>
<path d="M247 187.424H7.18018V188H247V187.424Z" fill="#3F3D56"/>
<path d="M39.5678 62.0864L21.627 62.3328L39.5678 69.6596V187.728H217.992V62.0864H39.5678Z" fill="#3F3D56"/>
<path d="M184.814 68.738H72.7461V78.0996H184.814V68.738Z" fill="white"/>
<path d="M209.636 168.512H176.458V179.844H209.636V168.512Z" fill="#2671B8"/>
<path d="M131.238 92.1418H47.9238V160.136H131.238V92.1418Z" fill="white"/>
<path d="M48.0789 91.9506L47.7686 92.3328L131.082 160.327L131.393 159.945L48.0789 91.9506Z" fill="#F2F2F2"/>
<path d="M131.081 91.9489L47.77 159.947L48.0804 160.329L131.391 92.331L131.081 91.9489Z" fill="#F2F2F2"/>
<path d="M209.882 98.0543H149.916V99.7788H209.882V98.0543Z" fill="white"/>
<path d="M209.882 103.474H149.916V105.199H209.882V103.474Z" fill="white"/>
<path d="M209.882 108.894H149.916V110.619H209.882V108.894Z" fill="white"/>
<path d="M209.882 114.314H149.916V116.038H209.882V114.314Z" fill="white"/>
<path d="M209.882 119.734H149.916V121.458H209.882V119.734Z" fill="white"/>
<path d="M209.882 125.154H149.916V126.878H209.882V125.154Z" fill="white"/>
<path d="M209.882 130.573H149.916V132.298H209.882V130.573Z" fill="white"/>
<path d="M209.882 135.993H149.916V137.718H209.882V135.993Z" fill="white"/>
<path d="M209.882 141.413H149.916V143.137H209.882V141.413Z" fill="white"/>
<path d="M209.882 146.833H149.916V148.557H209.882V146.833Z" fill="white"/>
<path d="M209.882 152.253H149.916V153.977H209.882V152.253Z" fill="white"/>
<path d="M209.882 157.672H149.916V159.397H209.882V157.672Z" fill="white"/>
<path d="M234.119 73.3555L226.641 76.5681C226.641 76.5681 212.219 78.7099 212.219 72.82C212.219 66.9302 226.641 70.1428 226.641 70.1428L231.449 68.602L234.119 73.3555Z" fill="#FFB8B8"/>
<path d="M232.516 33.7329L238.926 35.3392L243.734 63.7176C243.734 63.7176 245.336 71.2138 242.665 71.7493C239.995 72.2847 232.516 76.5683 232.516 76.5683C232.516 76.5683 231.448 68.5366 229.312 68.5366L234.653 64.2531L231.448 45.5126L232.516 33.7329Z" fill="#D0CDE1"/>
</g>
<defs>
<clipPath id="clip0">
<rect width="247" height="188" fill="white"/>
</clipPath>
</defs>
</svg>
