<svg width="247" height="188" viewBox="0 0 247 188" fill="none" xmlns="http://www.w3.org/2000/svg">
<g clip-path="url(#clip0)">
<path d="M227.553 45.7001C199.519 5.72654 140.298 -10.4885 82.0565 6.97548C51.266 16.2082 21.5782 34.7072 6.86572 70.5273C-19.4345 134.56 35.7861 155.01 71.8944 161.528C89.3544 164.679 105.799 169.973 120.826 177.181C147.861 190.149 195.714 201.64 231.799 147.623C257.954 108.472 246.226 72.3265 227.553 45.7001Z" fill="#F2F2F2"/>
<path d="M65.0208 53.6087C64.9424 52.9734 64.7838 52.3512 64.549 51.7578C64.519 51.6456 64.4666 51.541 64.3951 51.4506C64.3235 51.3603 64.2343 51.2863 64.1333 51.2332C63.9983 51.1972 63.8567 51.1956 63.7209 51.2285L61.6033 51.5605C61.426 51.5688 61.2563 51.6363 61.1201 51.7528C60.8443 52.0501 61.1159 52.5286 61.1075 52.9387C61.098 53.3998 60.6982 53.774 60.2646 53.8978C59.8221 53.9895 59.3656 53.9837 58.9254 53.8808L55.9644 53.4093C56.8364 53.1241 57.6126 52.5933 58.2044 51.8776C58.594 51.4046 58.8013 50.5215 58.2382 50.2975C58.0709 50.2505 57.8964 50.2361 57.7239 50.2552C56.3824 50.2659 55.3267 49.1182 54.0708 48.6348C53.267 48.3454 52.3944 48.3238 51.578 48.5732C50.7615 48.8227 50.0429 49.3302 49.5249 50.0234L51.1023 50.1013C51.2507 50.0929 51.3978 50.1331 51.5224 50.2161C51.8681 50.5071 51.4383 51.0662 51.487 51.5219C51.5503 52.114 52.3175 52.2404 52.8958 52.3002C53.4742 52.3601 54.2079 52.8416 53.9297 53.3646C51.0229 54.3905 48.065 51.3591 45.0122 51.7323C44.2396 51.8267 43.51 52.1377 42.7557 52.3333C38.1477 53.528 33.3838 50.3404 28.6764 51.0155C27.6299 51.1983 26.6014 51.4763 25.603 51.8461C24.9624 52.0616 24.2941 52.2946 23.8286 52.7945C23.3631 53.2944 23.1859 54.1493 23.6269 54.6721C22.4114 54.7746 21.1878 54.6555 20.0129 54.3201C20.3306 54.501 20.5949 54.7663 20.778 55.088C20.9612 55.4098 21.0565 55.7761 21.0538 56.1485C19.1559 56.4657 17.3083 57.0429 15.5606 57.8648C15.8868 58.4206 16.2678 58.9407 16.6976 59.4168L14.2949 60.9985C15.1067 61.2081 15.5263 62.3423 15.0543 63.0506C15.896 62.6669 16.4176 61.6744 17.3176 61.4731C17.9073 61.3413 18.5073 61.5885 19.0666 61.8207C19.626 62.0529 20.2408 62.278 20.8199 62.1037C21.3989 61.9295 21.826 61.1601 21.4581 60.6699C23.9331 59.9299 26.4911 59.5204 29.0685 59.4515C29.2673 59.426 29.4689 59.4652 29.6448 59.5636C29.9803 59.8021 29.8921 60.3173 29.874 60.7353C29.8559 61.1534 30.1739 61.7028 30.5385 61.5143C30.1095 61.8955 30.4762 62.613 30.8878 63.0139C31.2993 63.4147 31.7953 63.9677 31.5434 64.4891C31.4776 64.6252 31.3661 64.734 31.3028 64.8713C31.1161 65.2766 31.4126 65.7492 31.7623 66.0183C32.1121 66.2875 32.5405 66.4756 32.7835 66.8483C33.0264 67.221 32.9161 67.8734 32.4817 67.9254L31.2468 66.3188C30.8249 66.7671 30.5357 67.3288 30.4126 67.9386C31.7221 69.0355 31.9191 71.2681 30.8228 72.5879C30.2626 73.2623 29.4659 73.6721 28.7706 74.1981C28.0752 74.7242 27.4318 75.4733 27.4336 76.3589C27.4366 77.889 27.3146 79.3105 27.8741 80.7291C28.9059 83.3448 30.0972 85.8915 31.4409 88.3541C31.7937 89.0008 32.2497 89.7095 32.9645 89.8209C32.0612 87.5674 31.248 85.2788 30.5249 82.9552C30.9958 82.9571 31.5401 82.9954 31.8162 83.3863C32.0448 83.7101 31.9957 84.1502 32.0667 84.5432C32.157 84.9238 32.3077 85.2868 32.5127 85.6175L36.8265 93.4915C37.1842 94.1442 37.5944 94.8449 38.2778 95.1092C38.7148 95.2782 39.2204 95.2464 39.6226 95.4897C39.9378 95.6804 40.1502 96.019 40.4715 96.1986C41.3803 96.7066 42.644 95.7324 43.4932 96.3389C43.736 96.5123 43.8905 96.7878 44.1143 96.9863C44.8986 97.6824 46.1853 97.2167 47.0907 97.7359C47.6743 98.0706 47.9767 98.7398 48.2879 99.3462C49.0676 100.865 50.3291 102.354 52 102.475C52.5248 102.513 53.0609 102.411 53.574 102.53C54.087 102.65 54.592 103.109 54.5097 103.641C54.3685 104.554 54.8087 105.554 54.6905 106.47C54.4751 108.139 52.1646 108.873 51.9661 110.544C51.9227 110.91 51.9907 111.288 51.9057 111.646C51.8014 112.085 51.4797 112.442 51.3654 112.879C51.1487 113.706 51.7269 114.529 52.362 115.085C52.9972 115.641 53.7548 116.121 54.1021 116.9C54.4691 117.723 54.2888 118.683 54.4082 119.579C54.6688 121.537 56.3188 122.988 58.017 123.924C58.5344 124.209 59.0899 124.485 59.4248 124.979C59.8618 125.625 59.8183 126.476 59.9642 127.247C60.3217 129.136 61.8736 130.693 61.9176 132.616C61.949 133.984 61.2073 135.224 60.7642 136.514C60.3488 137.75 60.1985 139.063 60.3235 140.364C60.4485 141.665 60.8459 142.923 61.4886 144.053C61.82 144.626 62.2164 145.167 62.4509 145.788C62.8693 146.898 62.7335 148.159 63.1193 149.281C63.6293 150.764 65.0308 151.989 64.8967 153.555C65.5329 154.909 66.9379 155.575 68.3507 155.977L70.8828 156.7C71.3676 156.838 71.8742 156.977 72.3679 156.877C72.8616 156.777 73.3327 156.357 73.32 155.842C72.0783 155.555 70.7968 155.25 69.7732 154.474C68.7497 153.699 68.0485 152.318 68.4369 151.076C68.6169 150.5 69 149.835 68.6358 149.359C68.4273 149.087 68.0459 149.016 67.8107 148.767C67.4438 148.379 67.5699 147.728 67.8336 147.26C68.0974 146.792 68.4786 146.375 68.585 145.846C68.6387 145.55 68.6029 145.244 68.4822 144.97C68.3615 144.695 68.1618 144.465 67.9099 144.31C68.3794 144.129 68.8064 143.848 69.1632 143.486C69.4928 143.101 69.645 142.506 69.3858 142.068C70.1557 142.168 71.0646 142.217 71.57 141.613C71.9736 141.131 71.9459 140.411 71.7864 139.797C71.6269 139.183 71.3574 138.587 71.349 137.952C73.1251 138.039 74.905 137.977 76.6713 137.768C76.4159 136.886 75.8355 136.141 75.0531 135.691C75.8531 135.552 76.5818 134.571 76.8346 133.781C77.0873 132.991 77.0228 132.13 76.8666 131.315C76.8066 131.105 76.7984 130.883 76.8427 130.669C76.9328 130.374 77.2148 130.195 77.4757 130.041L81.4463 127.705C81.6833 127.583 81.898 127.421 82.0813 127.224C82.4973 126.724 82.4356 125.968 82.2226 125.348C82.0096 124.727 81.6684 124.144 81.5864 123.492C81.341 121.541 83.3786 120.142 84.0663 118.306C84.3362 117.585 84.3912 116.802 84.4434 116.032C84.4995 115.205 84.5037 114.245 83.884 113.712C83.2901 113.201 82.362 113.315 81.7404 112.84C81.1706 112.404 80.974 111.558 80.3515 111.206C79.7861 110.887 79.0773 111.09 78.4485 110.939C77.3415 110.675 76.6448 109.367 75.5141 109.246C74.8762 109.178 74.1542 109.498 73.6314 109.117C73.1707 108.781 73.1522 108.107 73.0645 107.535C72.9108 106.646 72.4949 105.827 71.8728 105.187C71.2507 104.547 70.4523 104.119 69.5851 103.958C68.9273 103.85 68.2114 103.891 67.6518 103.521C67.0853 103.146 66.8255 102.444 66.3804 101.924C65.6631 101.087 64.5334 100.79 63.4751 100.535L59.1705 99.498C58.4063 99.3139 57.4213 99.2163 57.0113 99.9022C56.8899 100.163 56.8039 100.44 56.7558 100.725C56.6022 101.241 56.293 101.693 55.8726 102.018C55.4523 102.342 54.9424 102.521 54.4164 102.53C54.0556 101.899 53.4711 101.436 52.7849 101.236C52.3484 101.112 51.8812 101.098 51.4649 100.914C51.2382 100.801 51.0364 100.641 50.872 100.445C50.7075 100.249 50.5839 100.021 50.5086 99.7741C50.4333 99.5273 50.4079 99.2674 50.434 99.0103C50.4601 98.7532 50.5371 98.5042 50.6603 98.2786C50.9085 97.8259 51.0044 97.302 50.9331 96.7878C50.8618 96.2737 50.6274 95.7979 50.2659 95.4338C49.5339 94.7604 48.475 94.5977 47.4934 94.6651C47.2363 94.0903 47.6661 93.4417 48.1294 93.024C48.5926 92.6063 49.155 92.1956 49.2559 91.5719C49.4146 90.5906 48.1928 89.8454 47.2651 90.138C46.3374 90.4305 45.7453 91.3538 45.3539 92.264C45.1294 92.7862 44.9384 93.3361 44.5842 93.7764C44.23 94.2167 43.6595 94.532 43.12 94.3907C42.3561 94.1907 42.0611 93.2607 41.892 92.4716C41.6652 91.4129 41.437 90.3395 41.4846 89.2567C41.5321 88.1738 41.8883 87.062 42.6676 86.329C43.9374 85.1345 45.8853 85.2516 47.599 85.4421C47.1941 84.9747 47.2942 84.1869 47.7274 83.7469C47.9561 83.5388 48.2309 83.3909 48.5279 83.3161C48.825 83.2413 49.1354 83.2419 49.4322 83.3178C49.9486 83.4279 50.4138 83.7129 50.7529 84.1269C51.2398 84.7353 51.3783 85.5568 51.7464 86.2473C52.1145 86.9379 52.9422 87.5269 53.6196 87.1564C54.2048 86.8364 54.2977 86.005 54.152 85.3419C54.0064 84.6789 53.6971 84.0341 53.7498 83.3566C53.8505 82.0639 55.1583 81.2858 56.3123 80.7534C57.4663 80.221 58.7877 79.505 58.9705 78.2218C58.9768 77.9705 59.023 77.722 59.1075 77.486C59.2354 77.2776 59.4133 77.1062 59.6242 76.9881C62.9922 74.7074 66.4163 72.3988 70.2658 71.1525C70.4661 71.0877 70.4896 71.1597 70.6937 71.1089C70.9793 70.9398 70.79 70.4718 70.5162 70.2833C70.2423 70.0947 69.8762 69.9502 69.8067 69.6197C69.7557 69.3767 69.8954 69.1382 69.9317 68.8924C70.0208 68.2886 69.3159 67.7311 68.7685 67.9725C68.4592 67.5529 69.0711 67.0653 69.5658 66.9258C71.0515 66.5068 72.5765 66.2515 74.115 66.1643C74.2925 66.1353 74.4744 66.167 74.6327 66.2545C74.8911 66.4379 74.858 66.8586 74.6749 67.1204C74.4918 67.3822 74.2069 67.5466 73.9787 67.7681C73.7294 68.017 73.5515 68.3313 73.4646 68.6766C73.3777 69.022 73.385 69.3852 73.4858 69.7266C74.289 70.1453 75.1621 70.5762 76.0517 70.4288C76.9412 70.2813 77.7308 69.2571 77.3127 68.4392C76.9233 67.6775 75.7537 67.5057 75.5526 66.6709C75.3171 65.6935 76.6674 64.8242 76.3632 63.8669C76.23 63.4475 75.8222 63.2008 75.5092 62.898C75.1396 62.5268 74.8882 62.0498 74.788 61.5296C74.6878 61.0093 74.7435 60.4702 74.9478 59.983C74.438 60.0748 73.9142 60.0401 73.4203 59.8818C72.9264 59.7234 72.4767 59.4459 72.109 59.0727C71.43 58.3705 70.8883 57.2629 69.9241 57.2943C69.0393 57.3231 68.2772 58.3809 67.4499 58.0582C67.2463 57.9788 67.0317 57.8172 66.8345 57.9119C66.7699 57.9549 66.7156 58.0124 66.6759 58.08C66.6361 58.1476 66.6119 58.2236 66.605 58.3023C66.3947 59.3323 66.7564 60.5059 66.2086 61.396C65.6124 62.3645 64.2334 62.4988 63.5107 63.3722C63.1183 63.8463 62.9663 64.4852 62.6057 64.985C62.2451 65.4849 61.4797 65.8027 61.0469 65.3671C61.2596 64.919 61.3177 64.4103 61.2117 63.924C61.1056 63.4378 60.8418 63.0027 60.4632 62.69C60.0614 62.4214 59.6283 62.2056 59.174 62.0475C58.6664 61.8273 58.1835 61.5515 57.7338 61.225C57.5085 61.0857 57.3254 60.885 57.2051 60.6453C57.1098 60.3451 57.1227 60.0199 57.2412 59.7285C57.4607 59.0838 57.8478 58.5128 58.3608 58.0771C58.8739 57.6414 59.4933 57.3575 60.1523 57.2562C60.7285 57.1758 61.3991 57.2041 61.7805 56.7543C61.9823 56.5162 62.0881 56.1563 62.381 56.0596C62.5683 56.0211 62.7628 56.0456 62.9354 56.1296L65.0862 56.9053C65.3261 57.0163 65.5903 57.0611 65.8524 57.0352C65.9823 57.0172 66.1008 56.9496 66.1841 56.8459C66.2674 56.7421 66.3094 56.6099 66.3015 56.4758C66.2328 56.1098 65.6832 55.9342 65.7332 55.565C65.7612 55.4454 65.824 55.3373 65.9132 55.255C66.6894 54.4084 67.6386 53.7482 68.693 53.3216C69.7473 52.895 70.8806 52.7125 72.0119 52.7872C72.2833 53.244 71.854 53.785 71.4968 54.175C71.1395 54.565 70.8525 55.2619 71.2845 55.5621C71.4615 55.6546 71.6584 55.7001 71.8571 55.6942C72.3866 55.7677 72.9013 55.9276 73.3814 56.1679C74.1246 56.4994 74.8535 56.862 75.5682 57.2558C75.5051 56.7729 75.4448 56.2643 75.6234 55.8128C75.802 55.3613 76.3097 55.0072 76.753 55.183C77.1804 55.3524 77.3995 55.9322 77.8548 55.9853C78.462 56.0562 78.7016 55.1369 78.448 54.5671C78.1943 53.9973 77.6921 53.5202 77.6502 52.8954C77.6219 52.4738 77.7785 51.9511 77.4499 51.6958C77.3329 51.6192 77.2002 51.5715 77.0622 51.5565L68.8575 50.0094C68.3703 49.9176 67.6663 49.988 67.6447 50.4951C67.6327 50.7782 67.8794 51.0582 67.7701 51.3185C67.6535 51.5963 67.2703 51.5709 66.9911 51.6692C66.558 51.8216 66.3407 52.3486 66.3823 52.8159C66.4585 53.2802 66.634 53.7215 66.8962 54.1081C66.3625 53.8794 65.5545 53.8374 65.0208 53.6087Z" fill="#3F3D56"/>
<path d="M58.4742 46.4721C57.9568 46.2966 57.3993 46.2885 56.8772 46.4487C56.3552 46.6089 55.8938 46.9297 55.5557 47.3677C55.4206 47.55 55.3072 47.8012 55.4203 47.9986C55.5824 48.2815 55.9956 48.1698 56.3002 48.0686C56.7479 47.9047 57.2352 47.8927 57.69 48.0346C57.9761 48.1352 58.232 48.3131 58.5192 48.4099C58.6591 48.4698 58.8122 48.4896 58.9622 48.4671C59.1122 48.4447 59.2534 48.3808 59.3706 48.2824C59.5678 48.0763 59.5802 47.756 59.5805 47.4675C59.5942 47.3709 59.5866 47.2724 59.5584 47.1792C59.5302 47.086 59.4821 47.0005 59.4175 46.9288C59.3025 46.8605 59.1733 46.8214 59.0406 46.8145C58.7434 46.7582 58.4746 46.5973 58.2808 46.3596" fill="#3F3D56"/>
<path d="M61.4328 45.628C61.3171 45.6215 61.2016 45.6457 61.0976 45.6982C60.9935 45.7506 60.9044 45.8297 60.8388 45.9276C60.7732 46.0256 60.7333 46.1392 60.7229 46.2576C60.7126 46.3759 60.7321 46.495 60.7796 46.6034C61.1352 46.7027 61.5067 46.7276 61.8718 46.6763C62.054 46.6474 62.2237 46.5638 62.3595 46.4362C62.4954 46.3085 62.5913 46.1425 62.6353 45.9591C62.2053 46.0393 61.7617 45.9525 61.3908 45.7156" fill="#3F3D56"/>
<path d="M71.3585 44.2183C70.3906 44.4292 69.4505 44.7564 68.5576 45.1932C68.9785 45.359 69.3364 45.659 69.5783 46.0489C69.8203 46.4389 69.9337 46.8981 69.9017 47.3591C69.8639 47.536 69.8683 47.7197 69.9144 47.8945C70.0173 48.1501 70.3154 48.246 70.5774 48.3115C71.0482 48.4584 71.5399 48.5227 72.0316 48.5017C72.2775 48.4885 72.5164 48.4127 72.7266 48.2811C72.9367 48.1495 73.1116 47.9663 73.2352 47.748C73.3065 47.5409 73.3901 47.3384 73.4855 47.1417C74.1137 46.1615 75.9797 47.3467 76.6541 46.3993C76.8917 46.0656 76.87 45.5632 77.1797 45.2987C77.3399 45.1835 77.5255 45.1109 77.7199 45.0875C79.0761 44.8113 80.4461 44.6114 81.8236 44.4886C82.4763 44.4304 83.3271 44.1902 83.3325 43.5189C80.874 43.0241 78.3249 43.3755 76.0814 44.5184C75.2731 44.9333 74.2041 45.8059 73.4255 45.2559C73.1339 45.05 73.1484 44.4955 72.7471 44.264C72.3369 44.0272 71.7939 44.1235 71.3585 44.2183Z" fill="#3F3D56"/>
<path d="M79.3988 45.7589L80.5528 45.9862C80.3404 45.9765 80.1284 46.0134 79.931 46.0944C79.7336 46.1753 79.5553 46.2985 79.408 46.4557C79.2607 46.6128 79.1478 46.8004 79.0769 47.0058C79.006 47.2112 78.9786 47.4297 78.9966 47.6468C80.0773 48.0168 81.2555 47.6568 82.394 47.7059C83.5324 47.7551 84.8569 48.5884 84.6626 49.7388C84.6038 50.0867 84.4077 50.4343 84.5097 50.7715C84.5812 51.0079 84.7846 51.1756 84.8994 51.3933C85.1387 51.8468 84.9475 52.4206 84.6453 52.8329C84.3432 53.2453 83.9371 53.5743 83.6719 54.0124C83.0124 55.1023 83.3871 56.5113 83.78 57.7289C83.8936 58.1889 84.1034 58.6182 84.3948 58.987C84.9769 59.6212 85.9255 59.6763 86.7751 59.689C87.3934 59.6983 88.1017 59.667 88.4927 59.1761C89.0032 58.5352 88.6463 57.5353 88.9824 56.7831C89.2876 56.0999 90.0653 55.8069 90.7699 55.599C92.0608 55.2182 93.3763 54.8945 94.5967 54.3193C96.1121 53.6051 97.5283 52.492 99.1939 52.4001C99.6612 52.3743 100.14 52.4308 100.59 52.2996C101.04 52.1684 101.468 51.7697 101.434 51.2914C101.405 50.8828 101.067 50.5828 100.804 50.2747C100.54 49.9667 100.333 49.493 100.575 49.1671L104.941 48.3315C104.632 47.4674 104.39 46.3292 105.102 45.7667C105.358 45.5637 105.702 45.4826 105.92 45.2373C106.292 44.8191 106.105 44.0987 105.675 43.743C105.246 43.3874 104.664 43.3048 104.114 43.258C102.2 43.0951 100.274 43.2027 98.3564 43.3104C94.6072 43.521 90.8579 43.7316 87.1087 43.9422C86.3539 43.9846 85.4825 43.9198 84.7903 44.1837C84.2042 44.407 83.7876 44.8171 83.1173 44.9611C81.88 45.2271 80.5184 45.0471 79.3988 45.7589Z" fill="#3F3D56"/>
<path d="M100.073 55.1062C99.9554 55.0871 99.8352 55.1151 99.7371 55.1842C99.6723 55.2574 99.6337 55.351 99.6278 55.4497C99.5533 55.885 99.642 56.3331 99.8762 56.7043C99.9956 56.8863 100.16 57.0323 100.353 57.1271C100.546 57.222 100.76 57.2621 100.974 57.2434C101.493 57.1755 101.876 56.7212 102.354 56.4996C103.09 56.1582 106.217 55.6261 104.054 54.4287C103.309 54.016 102.827 54.3803 102.24 54.6521C101.571 55.0025 100.822 55.1595 100.073 55.1062Z" fill="#3F3D56"/>
<path d="M119.019 45.0829C118.766 45.1887 118.555 45.3771 118.418 45.6189C118.355 45.7417 118.34 45.8846 118.377 46.0181C118.414 46.1517 118.499 46.2656 118.616 46.3363C118.71 46.3714 118.81 46.3876 118.91 46.3842L119.937 46.4156C120.374 46.429 120.919 46.5242 121.036 46.955C121.123 47.2749 120.928 47.686 121.163 47.9146C121.264 47.9946 121.385 48.0431 121.513 48.0542C121.851 48.1433 122.204 48.1549 122.547 48.0884C123.295 47.8831 122.902 47.4157 123.137 46.9996C123.497 46.3629 123.435 46.7483 124.069 46.3834C124.538 46.114 125.144 45.6251 124.752 44.9383C124.072 43.7439 120.022 44.5698 119.019 45.0829Z" fill="#3F3D56"/>
<path d="M139.289 44.4826L138.693 44.5641C137.348 44.748 135.995 44.9336 134.7 45.3474C135.261 45.5745 135.849 45.7224 136.449 45.787C136.779 45.8036 137.107 45.8513 137.428 45.9296C138 46.1041 138.577 46.5548 139.129 46.3239C139.472 46.1808 139.584 45.8152 139.868 45.6214C140.064 45.4876 140.807 45.2711 140.89 45.136C141.562 44.0443 139.805 44.4119 139.289 44.4826Z" fill="#3F3D56"/>
<path d="M141.907 47.2597C141.111 47.7162 140.372 48.2708 139.707 48.9112C139.426 49.1811 139.14 49.5167 139.166 49.9099C139.199 50.4325 139.743 50.7356 140.213 50.9398L142.12 51.7669C142.351 51.4329 142.139 50.9718 141.9 50.6436C141.661 50.3153 141.377 49.9356 141.483 49.5406C141.603 49.0898 142.14 48.9362 142.589 48.8586C143.322 48.732 145.299 48.7422 145.062 47.5321C144.782 46.1062 142.643 46.8384 141.907 47.2597Z" fill="#3F3D56"/>
<path d="M141.524 127.953C141.343 128.491 141.325 129.125 141.639 129.595C141.992 130.123 142.697 130.319 143.306 130.186C143.914 130.02 144.455 129.663 144.854 129.166C145.219 128.749 145.52 128.277 145.745 127.767C146.059 126.972 146.28 126.141 146.405 125.293L146.997 122.108C147.129 121.396 147.124 119.215 145.847 119.925C145.498 120.12 144.691 121.653 144.325 122.088C143.667 122.872 143.58 123.632 143.233 124.581C142.798 125.771 141.926 126.762 141.524 127.953Z" fill="#3F3D56"/>
<path d="M208.949 144.249C208.531 144.082 208.125 143.884 207.736 143.657C207.345 144.758 207.137 145.919 207.121 147.091L209.979 145.434C210.409 145.185 210.896 144.838 210.887 144.332C210.891 144.269 210.878 144.207 210.85 144.151C210.823 144.095 210.781 144.048 210.729 144.015C210.665 143.989 210.596 143.981 210.529 143.991C210.105 144.027 209.718 144.241 209.318 144.389C208.919 144.538 208.451 144.617 208.084 144.396" fill="#3F3D56"/>
<path d="M224.027 145.233C223.713 145.32 223.407 145.433 223.11 145.57C222.454 145.912 222.008 146.561 221.418 147.012C220.853 147.443 220.173 147.679 219.506 147.909C219.309 148.087 219.4 148.445 219.613 148.602C219.842 148.735 220.105 148.796 220.368 148.776C221.061 148.791 221.792 148.798 222.399 148.455C222.741 148.227 223.062 147.967 223.356 147.677C224.066 147.07 224.919 146.669 225.763 146.282C226.07 146.163 226.354 145.989 226.602 145.768C227.132 145.232 227.17 144.406 226.405 144.224C225.787 144.077 224.616 145.038 224.027 145.233Z" fill="#3F3D56"/>
<path d="M230.689 140.773C230.723 140.405 230.675 140.033 230.549 139.686C230.423 139.34 230.221 139.027 229.959 138.771C229.952 139.509 229.93 140.294 229.525 140.904C229.237 141.338 228.785 141.632 228.469 142.046C228.153 142.459 228.012 143.115 228.383 143.478C228.62 143.663 228.908 143.765 229.206 143.769C229.944 143.858 230.797 143.907 231.315 143.361C231.597 143.063 231.734 142.622 232.079 142.403C232.207 142.348 232.322 142.264 232.414 142.157C232.556 141.925 232.33 141.62 232.076 141.537C231.822 141.453 231.541 141.492 231.286 141.413C231.03 141.334 230.796 141.039 230.927 140.801" fill="#3F3D56"/>
<path d="M218.848 113.74C218.461 113.837 218.061 113.861 217.665 113.812C217.009 113.688 216.498 113.181 215.967 112.765C214.707 111.782 213.175 111.233 211.591 111.199C210.151 111.171 208.697 111.571 207.282 111.292C207.374 111.818 207.814 112.214 208.284 112.448C208.753 112.683 209.271 112.802 209.743 113.032C210.498 113.404 211.097 114.043 211.43 114.831C211.582 115.194 211.678 115.589 211.908 115.907C212.378 116.555 213.27 116.698 214.057 116.645C215.083 116.576 216.154 116.273 217.109 116.665C217.839 116.964 218.361 117.619 218.971 118.128C219.58 118.638 220.439 119.015 221.139 118.648C220.412 118.407 219.779 117.934 219.333 117.298C218.887 116.662 218.651 115.897 218.659 115.114C219.345 115.179 221.323 115.153 221.216 113.958C221.126 112.945 219.438 113.631 218.848 113.74Z" fill="#3F3D56"/>
<path d="M209.867 121.983C209.989 121.298 210.655 120.693 210.448 120.03C210.304 119.571 209.785 119.345 209.315 119.333C208.846 119.322 208.384 119.466 207.914 119.479C207.608 119.462 207.302 119.467 206.997 119.492C206.064 119.649 205.489 120.651 204.61 121.007C204.076 121.224 203.476 121.182 202.92 121.332C201.658 121.672 200.86 122.894 199.978 123.878C198.553 125.463 196.697 126.572 194.649 127.063C193.932 127.233 193.161 127.342 192.59 127.819C191.835 128.451 191.65 129.535 191.482 130.519C191.017 133.238 190.308 135.906 189.363 138.489L192.359 138.881C192.928 138.956 193.518 139.029 194.067 138.856C194.466 138.702 194.844 138.496 195.191 138.242C196.525 137.394 198.018 136.841 199.574 136.621C200.359 136.511 201.181 136.491 201.917 136.789C202.653 137.088 203.285 137.766 203.347 138.575C203.665 138.473 204.004 138.462 204.328 138.543C204.652 138.624 204.949 138.793 205.186 139.033C205.655 139.523 205.962 140.151 206.064 140.83C206.143 141.25 206.222 141.753 206.602 141.929C206.913 142.073 207.269 141.918 207.608 141.89C208.76 141.796 209.716 143.172 210.848 142.935C212.062 142.681 212.36 140.817 213.544 140.444C214.225 140.23 215.179 140.49 215.504 139.842C215.792 139.271 215.219 138.611 215.278 137.971C215.351 137.183 216.258 136.849 216.957 136.512C219.368 135.353 220.512 132.029 219.344 129.576C218.651 128.124 217.289 126.98 217.038 125.384C216.844 124.156 217.317 122.724 216.553 121.757C216.164 121.265 215.506 120.994 215.275 120.407C215.129 120.038 215.188 119.619 215.109 119.229C215.031 118.839 214.699 118.431 214.323 118.532C213.231 118.825 212.883 122.28 212.299 123.119C211.411 124.395 209.587 123.555 209.867 121.983Z" fill="#3F3D56"/>
<path d="M189.694 115.046C189.321 114.939 188.914 114.833 188.557 114.986C188.199 115.139 187.991 115.677 188.278 115.944C190.521 115.854 192.779 115.765 195.004 116.077C197.567 116.437 200.104 117.328 202.678 117.066C201.207 116.621 199.713 116.266 198.201 116.002L195.681 115.508C195.005 115.363 194.322 115.255 193.634 115.184C192.196 115.062 191.108 115.452 189.694 115.046Z" fill="#3F3D56"/>
<path d="M191.941 107.038C191.754 107.022 191.524 107.008 191.427 107.173C191.335 107.329 191.441 107.537 191.391 107.712C191.323 107.953 191.016 108.014 190.775 107.981C190.533 107.949 190.271 107.87 190.057 107.99C189.948 108.066 189.866 108.176 189.824 108.304C189.782 108.431 189.781 108.57 189.821 108.698C189.909 108.952 190.051 109.184 190.236 109.376C190.553 109.785 190.914 110.156 191.313 110.482C192.084 111.065 193.129 111.346 193.614 112.193C193.683 112.357 193.788 112.502 193.922 112.617C194.155 112.768 194.459 112.653 194.71 112.536L195.59 112.124C195.749 112.065 195.89 111.966 196.002 111.837C196.203 111.557 196.079 111.16 195.91 110.859C195.742 110.558 195.526 110.246 195.562 109.901C195.626 109.285 196.399 109.05 196.716 108.523C197.037 107.992 196.828 107.308 196.865 106.685C196.908 105.957 197.355 105.009 196.636 104.465C196.025 104.002 195.441 104.43 195.003 104.94C194.078 106.017 193.641 107.184 191.941 107.038Z" fill="#3F3D56"/>
<path d="M197.282 96.1531C197.583 96.7425 198.209 97.0943 198.536 97.6683C198.892 98.2906 198.851 99.0945 199.236 99.6976C199.632 100.316 200.427 100.645 200.649 101.349C200.891 102.117 200.342 103.051 200.779 103.722C200.861 103.832 200.964 103.923 201.082 103.99C201.2 104.057 201.33 104.098 201.464 104.11C201.598 104.123 201.733 104.107 201.861 104.063C201.988 104.02 202.106 103.949 202.206 103.856C202.39 103.651 202.489 103.379 202.481 103.1C202.473 102.82 202.359 102.555 202.162 102.361C201.903 102.119 201.531 102.014 201.315 101.731C201.202 101.568 201.127 101.381 201.095 101.183C200.977 100.615 200.996 100.025 201.15 99.4649C201.208 99.3229 201.223 99.1662 201.193 99.0154C201.095 98.7253 200.712 98.7047 200.443 98.5701C199.832 98.2644 199.846 97.3807 199.953 96.6925C199.882 97.1507 198.289 96.3714 198.122 96.1118C197.791 95.5963 197.971 94.6017 197.906 94.032C197.191 94.3852 196.915 95.4324 197.282 96.1531Z" fill="#3F3D56"/>
<path d="M181.236 105.222C180.942 104.885 180.499 104.532 180.105 104.736C179.804 104.891 179.722 105.317 179.84 105.64C179.983 105.954 180.204 106.224 180.481 106.424C181.302 107.118 182.187 107.744 182.903 108.551C184.186 109.995 184.865 111.944 186.259 113.274C186.54 113.582 186.911 113.788 187.316 113.86C187.722 113.899 188.179 113.632 188.225 113.217C188.264 112.875 188.031 112.568 187.804 112.315C187.262 111.711 186.669 111.155 186.157 110.524C185.921 110.282 185.773 109.964 185.737 109.624C185.734 109.284 186.036 108.929 186.357 109.013C185.967 108.91 185.677 108.244 185.104 108.118C184.625 108.013 184.509 108.317 183.938 108.067C182.851 107.589 181.998 106.096 181.236 105.222Z" fill="#3F3D56"/>
<path d="M206.791 72.3869C206.479 72.2919 206.172 72.1796 205.872 72.0506C205.064 71.8022 203.996 72.4104 204.104 73.2672C204.175 73.8365 204.692 74.2204 204.978 74.7142C205.401 75.4465 205.288 76.3753 205.066 77.1954C205.011 77.4494 204.907 77.6894 204.76 77.9014C204.555 78.1252 204.309 78.3063 204.037 78.4348C202.946 79.0614 201.985 79.8985 201.205 80.9C201.12 80.9925 201.061 81.1066 201.034 81.2303C200.995 81.5196 201.279 81.7304 201.44 81.9717C201.796 82.5077 201.538 83.2289 201.574 83.8765C201.568 83.968 201.586 84.0595 201.624 84.1422C201.663 84.2249 201.722 84.296 201.795 84.349C202.01 84.4608 202.264 84.2708 202.381 84.0547C202.767 83.3374 202.476 82.186 203.201 81.8401C203.338 81.7747 203.504 81.7471 203.596 81.6237C203.741 81.4279 203.601 81.138 203.674 80.904C203.785 80.5526 204.254 80.5368 204.614 80.5524C205.234 80.579 205.854 80.4944 206.445 80.3025C206.677 80.246 206.888 80.1209 207.052 79.9428C207.268 79.6657 207.249 79.2717 207.206 78.9194C206.989 77.163 206.446 75.4654 205.606 73.9182C206.243 74.0016 206.936 74.0737 207.485 73.7337C207.793 73.5433 208.162 72.9739 208.009 72.5864C207.768 71.9735 207.332 72.4894 206.791 72.3869Z" fill="#3F3D56"/>
<path d="M125.162 82.0466C125.238 82.4654 125.313 82.9064 125.179 83.3096C125.045 83.7129 124.623 84.0499 124.226 83.9263C123.917 83.8304 123.738 83.5123 123.519 83.2697C122.3 81.921 119.549 82.7019 118.796 81.0332C118.488 80.3522 118.697 79.5362 118.488 78.8173C118.355 78.4018 118.092 78.0431 117.739 77.7975C117.387 77.5519 116.964 77.4334 116.538 77.4605C116.15 77.5179 115.772 77.6335 115.417 77.8036C113.035 78.7809 110.535 79.4216 107.985 79.7082C107.501 79.7384 107.021 79.8278 106.557 79.9744C105.51 80.3634 104.795 81.3581 104.286 82.3731C103.776 83.3881 103.401 84.487 102.718 85.3888C102.001 86.3365 100.995 87.0002 100.058 87.718C99.6963 87.9566 99.3955 88.2796 99.1799 88.6606C98.9766 89.0883 98.9881 89.5857 99.0038 90.0611L99.1955 95.8354C99.2201 96.5781 99.2511 97.3474 99.5755 98.0121C99.9806 98.842 100.781 99.3856 101.336 100.119C101.903 100.872 102.198 101.803 102.171 102.754C102.16 103.136 102.123 103.588 102.413 103.828C102.59 103.946 102.797 104.007 103.007 104.004L110.63 104.643C111.971 104.755 113.457 104.94 114.332 105.987C114.746 106.481 115.077 107.192 115.71 107.245C115.982 107.267 116.246 107.153 116.517 107.131C117.202 107.075 117.804 107.608 118.184 108.195C118.759 109.089 119.02 110.157 118.924 111.224C118.862 111.893 118.659 112.544 118.615 113.215C118.449 115.768 120.561 117.986 120.602 120.544C120.626 122.049 119.929 123.455 119.249 124.789C120.346 126.491 119.448 128.759 119.885 130.75C120.299 132.638 121.836 134.117 122.219 136.012C122.394 136.88 122.404 137.948 123.151 138.395C123.479 138.558 123.842 138.633 124.206 138.611C126.401 138.638 128.571 138.132 130.538 137.134C131.462 136.664 132.419 135.963 132.58 134.92C132.71 134.079 132.294 133.138 132.717 132.405C133.217 131.541 134.496 131.61 135.231 130.946C136.423 129.868 135.493 127.814 135.976 126.262C136.411 124.867 137.905 124.126 138.646 122.874C138.937 122.336 139.147 121.755 139.266 121.152C139.606 119.709 139.817 118.239 139.897 116.758C139.917 115.858 139.982 114.96 140.091 114.066C140.89 108.982 145.796 105.577 147.389 100.692C147.541 100.226 147.612 99.6044 147.207 99.3404C146.967 99.223 146.695 99.1938 146.436 99.2577L142.922 99.7117C142.485 99.768 142.023 99.8207 141.622 99.635C141.221 99.4492 140.934 98.9296 141.146 98.535C141.743 97.4273 140.516 96.0275 139.97 94.8922C138.501 91.8354 136.752 88.9287 134.746 86.2112C134.618 86.0714 134.537 85.8925 134.517 85.7016L135.515 85.7357C135.178 84.4978 134.622 83.1433 133.449 82.6905C132.787 82.4353 132.055 82.5236 131.349 82.5631C129.328 82.6762 127.162 82.3635 125.162 82.0466Z" fill="#3F3D56"/>
<path d="M131.351 54.1523C131.88 54.7278 132.473 55.3379 133.238 55.4382C134.589 55.6154 135.561 54.1833 136.18 52.9394C136.203 53.2565 136.345 53.552 136.577 53.7629C136.81 53.9739 137.113 54.0837 137.423 54.069C137.757 54.0114 138.075 53.8839 138.358 53.6943C141.036 52.1948 144.035 51.4003 147.087 51.3822C147.057 51.1453 147.115 50.9058 147.248 50.7097C147.381 50.5136 147.58 50.3749 147.807 50.3204C148.427 50.1943 148.986 50.744 149.285 51.3149C149.584 51.8859 149.771 52.5477 150.247 52.975C150.722 53.4024 151.643 53.3838 151.831 52.7649C152.011 52.1708 151.407 51.6641 150.905 51.3138C150.403 50.9635 149.874 50.3152 150.212 49.7982C152.776 49.2167 155.356 48.6329 157.979 48.5173C158.426 48.5333 158.871 48.4547 159.287 48.2865C159.687 48.0854 160.005 47.6287 159.897 47.1855C159.325 47.3234 158.725 47.2835 158.175 47.0708C157.625 46.8581 157.149 46.4823 156.807 45.9913C160.448 45.6835 164.32 45.4211 167.546 47.1763C167.933 48.028 165.96 48.7365 166.488 49.5046C166.656 49.7496 166.994 49.7783 167.286 49.7839C169.528 49.8265 171.783 49.8683 173.999 49.5215C174.809 49.3948 175.627 49.2159 176.441 49.3186C177.795 49.4898 178.954 50.416 180.287 50.7179C180.829 50.8408 181.437 50.845 181.894 50.5217C182.352 50.1984 182.548 49.4623 182.173 49.0421C183.428 47.782 185.511 48.0943 187.166 48.6976C188.821 49.3009 190.39 50.2738 192.142 50.4082C193.398 50.5047 194.672 50.1584 195.913 50.3785C196.693 50.5168 197.419 50.8724 198.182 51.0909C199.624 51.5041 201.149 51.4169 202.646 51.4368C206.467 51.4895 210.245 52.2589 213.795 53.7067C214.257 53.8608 214.68 54.1169 215.034 54.457C215.364 54.8194 215.533 55.3826 215.311 55.8233L211.643 55.2741C211.989 55.9712 212.883 56.09 213.609 56.3305C214.335 56.571 215.088 57.3926 214.651 58.0341C213.865 57.7774 213.152 58.5834 212.754 59.3249C212.357 60.0665 211.873 60.9546 211.048 60.9998C210.31 61.0402 209.417 60.3961 208.936 60.9712C209.601 61.8306 210.17 62.7632 210.633 63.7518C211.108 64.7667 211.447 66.0456 210.805 66.9587C210.703 67.1217 210.55 67.2435 210.371 67.3033C209.846 67.4394 209.505 66.7816 209.129 66.3828C208.654 65.8804 207.937 65.7381 207.295 65.5024C206.653 65.2668 205.976 64.8032 205.926 64.1061C205.895 63.6724 206.118 63.2692 206.283 62.8683C206.559 62.1927 206.68 61.4607 206.636 60.7294C206.6 60.141 206.439 59.529 206.027 59.1179C205.615 58.7068 204.903 58.5764 204.46 58.9529C204.253 59.1286 204.088 59.4096 203.82 59.4201C203.346 59.4387 202.982 58.5919 202.6 58.881C202.645 59.189 202.583 59.5033 202.424 59.7689C201.286 60.783 199.538 60.354 198.071 60.7122C197.374 60.9168 196.706 61.2157 196.085 61.601C195.853 61.7027 195.656 61.8726 195.518 62.0892C195.334 62.4539 195.536 62.9209 195.859 63.1633C196.201 63.3785 196.586 63.513 196.985 63.5572C198.774 63.9043 200.588 64.4416 202 65.6187C203.412 66.7958 204.338 68.7416 203.891 70.5497L200.364 67.0965C200.498 68.5464 200.574 70.0004 200.593 71.4583C200.615 71.743 200.577 72.0293 200.481 72.2973C200.229 72.8664 199.548 73.0579 198.951 73.1835C198.785 73.2158 198.627 73.2838 198.488 73.3829C198.35 73.4821 198.233 73.6102 198.146 73.7588C198.059 73.9074 198.004 74.0732 197.984 74.2452C197.964 74.4172 197.98 74.5916 198.031 74.7569C198.243 75.4656 198.772 76.0181 199.256 76.5686C199.741 77.1191 200.217 77.7448 200.281 78.4831C200.344 79.2215 199.8 80.0538 199.079 80.0024C198.532 79.9635 198.126 79.4617 197.893 78.9532C197.659 78.4447 197.52 77.8783 197.17 77.4462C196.109 76.1384 193.725 76.6987 192.774 75.3045C192.532 75.5862 192.364 75.9267 192.286 76.2936C192.208 76.6605 192.223 77.0417 192.33 77.401C192.772 77.1173 193.378 77.3809 193.71 77.7931C194.042 78.2053 194.199 78.7338 194.46 79.1968C194.812 79.8215 195.372 80.3754 195.421 81.095C195.408 81.3672 195.413 81.6399 195.435 81.9114C195.522 82.3475 195.882 82.6606 196.131 83.0251C196.712 83.8732 196.683 85.0383 196.309 86.0006C195.935 86.9629 195.263 87.767 194.597 88.5466C193.435 89.9082 192.249 91.2618 190.87 92.3926C190.477 92.7153 190.057 93.0325 189.812 93.4836C189.567 93.9347 189.555 94.5679 189.931 94.9111C189.662 94.9249 189.179 95.0606 188.91 95.0744C188.815 93.9674 188.794 92.8551 188.848 91.7452C187.785 91.2223 186.641 92.6226 186.778 93.8225C186.915 95.0223 187.762 95.9852 188.365 97.0232C188.806 97.7824 189.134 98.6675 188.987 99.5379C188.839 100.408 188.081 101.211 187.222 101.135C185.856 101.012 185.285 99.0029 183.932 98.7729C183.813 98.7442 183.687 98.7569 183.576 98.8091C183.375 98.922 183.34 99.1974 183.329 99.4318C183.274 100.582 183.226 101.779 183.664 102.84C184.305 104.392 185.962 105.695 185.614 107.343C183.742 106.451 182.769 104.3 182.327 102.233C181.885 100.167 181.811 97.9975 181.019 96.044C180.418 96.834 179.153 96.1809 178.604 95.3521C178.083 94.5664 177.762 93.6574 177.256 92.8611C176.751 92.0647 175.976 91.3516 175.05 91.3079C174.079 91.2619 173.237 91.9447 172.496 92.5899C171.888 93.1204 171.262 93.6717 170.906 94.4051C170.388 95.4722 170.524 96.7302 170.499 97.9218C170.472 99.21 170.205 100.569 169.349 101.512C168.492 102.455 166.91 102.784 165.965 101.934C165.472 101.49 165.233 100.827 165.02 100.191C163.994 97.1233 163.14 93.9983 162.461 90.8312C162.303 91.5541 161.683 92.4858 161.091 92.06C160.959 91.9455 160.851 91.8035 160.776 91.6433C159.672 89.7262 157.628 88.5763 155.562 87.8868C153.497 87.1973 151.324 86.8757 149.281 86.118C148.137 85.6932 147.043 85.1352 146.023 84.4549C145.763 84.8465 145.611 85.3029 145.583 85.7758C145.556 86.2487 145.654 86.7204 145.866 87.1409C146.319 87.963 147.345 88.4386 148.222 88.1513C148.676 88.0028 149.059 87.6802 149.509 87.5208C149.959 87.3615 150.563 87.4397 150.76 87.884C150.948 88.3092 150.663 88.8236 150.805 89.2676C151.02 89.9439 152.015 89.996 152.363 90.6113C152.622 91.0692 152.409 91.6772 152.039 92.0466C151.669 92.4161 151.176 92.6187 150.725 92.8759C149.26 93.7104 148.219 95.1349 146.939 96.2432C145.659 97.3514 143.853 98.1606 142.328 97.4497C142.692 95.5632 140.499 94.1781 140.095 92.3001C139.962 91.682 140.031 91.0254 139.842 90.423C139.567 89.5508 138.812 88.9512 138.192 88.2903C137.441 87.4799 136.856 86.5236 136.471 85.4777C136.086 84.4317 135.91 83.3174 135.952 82.2005C135.985 81.4244 136.125 80.6356 135.952 79.879C135.779 79.1225 135.168 78.3903 134.411 78.4246C132.681 78.5029 130.501 78.6347 129.594 77.1236C129.27 76.5842 129.129 75.7943 129.597 75.3811C129.927 75.0896 130.415 75.117 130.849 75.1608L134.747 75.5537C135.659 75.6456 136.644 75.7214 137.427 75.2331C138.209 74.7447 138.548 73.4483 137.823 72.8737C137.294 72.4539 136.346 72.4767 136.192 71.8092C136.064 71.2532 136.664 70.6225 136.34 70.1579C136.108 69.8247 135.585 69.9172 135.268 70.1669C134.951 70.4166 134.721 70.7818 134.367 70.9709C133.745 71.3026 133.001 70.9869 132.332 70.7724C131.663 70.5578 130.766 70.5396 130.441 71.1765C130.078 71.8887 130.763 72.8221 130.403 73.5358C129.927 74.4794 128.314 73.9422 127.645 74.7539C126.877 75.6853 128.167 77.0741 127.908 78.264C127.578 78.4317 127.211 78.5087 126.842 78.4875C126.474 78.4663 126.118 78.3476 125.807 78.143C125.503 77.9305 125.259 77.6372 125.104 77.2944C124.949 76.9516 124.887 76.572 124.926 76.1962C124.99 75.6609 125.262 75.1145 125.08 74.6087C124.932 74.1998 124.531 73.9563 124.159 73.7454L120.371 71.6005C120.019 72.269 120.464 73.0978 121.02 73.5999C121.576 74.102 122.272 74.4802 122.638 75.141C122.869 75.5988 122.921 76.1298 122.783 76.6254C122.645 77.121 122.327 77.544 121.895 77.8079C121.841 77.8461 121.779 77.872 121.714 77.8836C121.65 77.8951 121.583 77.8922 121.519 77.875C121.459 77.8386 121.406 77.7901 121.364 77.7325C121.323 77.6749 121.293 77.6092 121.276 77.5394C120.608 75.7869 119.604 74.0589 118 73.1434C116.396 72.2279 114.09 72.4161 113.038 73.9583C112.788 74.3246 112.621 74.7422 112.403 75.1295C111.247 77.187 108.767 78.1614 106.451 78.0977C106.224 78.1106 105.999 78.0563 105.802 77.9414C105.427 77.6765 105.444 77.1143 105.501 76.6518L105.745 74.6891C105.793 74.2949 105.864 73.8593 106.169 73.6133C106.598 73.2665 107.217 73.4853 107.763 73.4773C108.177 73.4574 108.575 73.3076 108.903 73.0481C109.232 72.7886 109.474 72.432 109.598 72.0267C109.708 71.6173 109.707 71.1848 109.596 70.7759C109.484 70.3669 109.265 69.9969 108.963 69.7058C108.713 69.4647 108.377 69.1619 108.509 68.8369C108.562 68.7471 108.633 68.6701 108.718 68.6115C108.803 68.5529 108.9 68.5141 109.001 68.4978C109.982 68.2057 111.02 68.1291 111.985 67.7844C112.95 67.4398 113.886 66.7346 114.115 65.7138C114.185 65.4009 114.217 65.0219 114.491 64.8668C114.629 64.8073 114.776 64.7763 114.926 64.7758C115.449 64.6995 115.926 64.4252 116.261 64.007C116.597 63.5887 116.768 63.0568 116.74 62.5159C117.203 62.1847 117.851 62.4283 118.299 62.7806C118.746 63.1329 119.141 63.5984 119.686 63.7502C120.701 64.0332 121.681 63.1125 122.733 63.1083C123.175 63.1065 123.633 63.2667 124.049 63.1131C124.471 62.9573 124.723 62.5271 125.047 62.2092C125.37 61.8913 125.938 61.6974 126.237 62.0399L125.983 60.1078C126.495 60.2405 127.03 60.2593 127.55 60.1629C128.071 60.0665 128.565 59.8571 129 59.5489L125.71 58.4098C125.595 58.3805 125.489 58.3226 125.402 58.2413C125.163 57.9774 125.4 57.5661 125.595 57.2661C126.06 56.5484 126.138 55.3662 125.373 55.0089C124.851 54.765 124.251 55.0577 123.75 55.3441L121.349 56.7161C121.272 57.1838 121.831 57.4489 122.177 57.7639C122.386 57.9545 122.534 58.2055 122.601 58.484C122.669 58.7624 122.653 59.0552 122.555 59.324C122.457 59.5928 122.282 59.825 122.053 59.99C121.824 60.1551 121.551 60.2453 121.272 60.2488C121.43 60.4594 121.539 60.7038 121.593 60.9639C121.646 61.2239 121.642 61.493 121.58 61.7511L119.965 61.8702C119.783 61.9075 119.595 61.8699 119.441 61.7654C119.268 61.6081 119.291 61.3325 119.251 61.0993C119.155 60.5364 118.617 60.1419 118.068 60.0407C117.519 59.9395 116.957 60.0692 116.413 60.1972C116.183 60.2823 115.929 60.2764 115.702 60.1804C115.572 60.0939 115.474 59.9661 115.421 59.8166C115.183 59.2244 115.406 58.5284 115.788 58.022C116.171 57.5157 116.695 57.1455 117.166 56.7239C118.291 55.7121 119.118 54.3979 119.553 52.9299C120.442 52.5481 121.363 52.0293 122.252 51.6474C123.624 50.936 125.161 50.6307 126.693 50.7659L129.705 50.8248C130.596 50.8423 131.512 50.8646 132.337 51.213C133.161 51.5614 133.886 52.3148 133.943 53.2269C133.96 53.3302 133.951 53.4362 133.918 53.5351C133.884 53.6339 133.826 53.7224 133.75 53.7921C133.633 53.8572 133.501 53.8877 133.369 53.8801C132.537 53.91 132.183 54.1223 131.351 54.1523Z" fill="#3F3D56"/>
<path d="M107.343 63.8252C107.461 63.7111 107.545 63.5659 107.588 63.4057C107.63 63.2455 107.629 63.0763 107.583 62.9169C107.297 62.8037 106.986 62.7746 106.684 62.833C106.382 62.8913 106.103 63.0348 105.876 63.2472C105.698 63.4322 105.544 63.6405 105.419 63.8668C105.023 64.5284 104.673 65.3188 104.903 66.0584C104.921 66.1391 104.955 66.2151 105.003 66.282C105.051 66.349 105.111 66.4054 105.181 66.4482C105.283 66.4904 105.394 66.5082 105.505 66.5002C105.941 66.4996 106.376 66.4721 106.809 66.4179C107.075 66.3846 107.384 66.3077 107.486 66.0543C107.621 65.7212 107.295 65.3443 107.39 64.9971C107.453 64.8418 107.547 64.7025 107.668 64.5887C107.728 64.5314 107.774 64.4606 107.802 64.3819C107.831 64.3032 107.841 64.2188 107.832 64.1354C107.794 63.9725 107.55 63.88 107.463 64.0216" fill="#3F3D56"/>
<path d="M109.604 60.8216C109.217 60.7305 108.817 60.7048 108.422 60.7456C108.335 60.7429 108.248 60.7631 108.17 60.8042C108.095 60.8612 108.04 60.9422 108.015 61.0345C107.931 61.3092 107.952 61.6061 108.072 61.8659C108.193 62.1258 108.404 62.3296 108.665 62.4368C108.807 62.4702 108.943 62.5262 109.068 62.6028C109.402 62.8686 109.189 63.4118 109.253 63.8405C109.324 64.3219 109.778 64.726 109.695 65.2053C109.629 65.5829 109.236 65.882 109.299 66.26C109.366 66.6559 109.856 66.7749 110.247 66.8066C110.473 66.8473 110.706 66.8199 110.918 66.7278C111.13 66.5791 111.281 66.3552 111.342 66.0993C111.502 65.6112 111.569 65.0963 111.54 64.5823C111.538 64.3486 111.481 64.1187 111.373 63.9128C111.255 63.7496 111.125 63.5965 110.983 63.4551C110.234 62.5625 111.022 61.2312 109.604 60.8216Z" fill="#3F3D56"/>
<path opacity="0.8" d="M208.072 130.739C208.072 130.739 150.72 97.0056 126.029 103.397C126.029 103.397 73.7021 109.168 67.6377 121.862C67.6377 121.862 51.0039 68.5982 44.9395 66.8227" stroke="#2671B8" stroke-width="2" stroke-miterlimit="10"/>
<path opacity="0.8" d="M67.6377 121.862C77.2541 95.5852 163.889 66.4675 163.889 66.4675C151.586 69.6634 126.029 103.397 126.029 103.397C126.029 103.397 71.9694 63.0941 44.9395 66.8226C44.9395 66.8226 163.975 70.8174 208.072 130.739" stroke="#215784" stroke-width="2" stroke-miterlimit="10"/>
<path d="M44.9396 69.3971C46.3272 69.3971 47.452 68.2445 47.452 66.8227C47.452 65.4009 46.3272 64.2483 44.9396 64.2483C43.5521 64.2483 42.4272 65.4009 42.4272 66.8227C42.4272 68.2445 43.5521 69.3971 44.9396 69.3971Z" fill="#215784"/>
<path d="M67.6379 124.437C69.0254 124.437 70.1503 123.284 70.1503 121.862C70.1503 120.44 69.0254 119.288 67.6379 119.288C66.2503 119.288 65.1255 120.44 65.1255 121.862C65.1255 123.284 66.2503 124.437 67.6379 124.437Z" fill="#215784"/>
<path d="M163.889 69.042C165.276 69.042 166.401 67.8894 166.401 66.4675C166.401 65.0457 165.276 63.8931 163.889 63.8931C162.501 63.8931 161.376 65.0457 161.376 66.4675C161.376 67.8894 162.501 69.042 163.889 69.042Z" fill="#215784"/>
<path d="M208.072 133.314C209.46 133.314 210.585 132.161 210.585 130.739C210.585 129.318 209.46 128.165 208.072 128.165C206.685 128.165 205.56 129.318 205.56 130.739C205.56 132.161 206.685 133.314 208.072 133.314Z" fill="#215784"/>
<path d="M126.029 105.972C127.417 105.972 128.542 104.819 128.542 103.397C128.542 101.975 127.417 100.823 126.029 100.823C124.642 100.823 123.517 101.975 123.517 103.397C123.517 104.819 124.642 105.972 126.029 105.972Z" fill="#215784"/>
</g>
<defs>
<clipPath id="clip0">
<rect width="247" height="188" fill="white"/>
</clipPath>
</defs>
</svg>
